<svg width="16" height="17" viewBox="0 0 16 17" fill="none" xmlns="http://www.w3.org/2000/svg">
<g clip-path="url(#clip0_2034_223)">
<path opacity="0.4" fill-rule="evenodd" clip-rule="evenodd" d="M9.10268 5.54216C9.1474 5.28791 9.17074 5.02633 9.17074 4.75929C9.17074 2.28074 7.16149 0.271484 4.68293 0.271484C2.20439 0.271484 0.195129 2.28074 0.195129 4.75929C0.195129 7.23785 2.20439 9.24709 4.68293 9.24709C4.94998 9.24709 5.21156 9.22376 5.4658 9.17904C5.96161 7.4222 7.34584 6.03796 9.10268 5.54216Z" fill="#DDC0FB"/>
<path d="M3.72504 3.17388V4.75924C3.72504 5.28439 4.15409 5.71046 4.68291 5.71046C5.21173 5.71046 5.64076 5.28439 5.64076 4.75924H4.84256C4.75475 4.75924 4.68291 4.68791 4.68291 4.60072C4.68291 4.5135 4.75475 4.44217 4.84256 4.44217H5.64076V4.1251H4.84256C4.75475 4.1251 4.68291 4.05375 4.68291 3.96656C4.68291 3.87936 4.75475 3.80802 4.84256 3.80802H5.64076V3.49095H4.84256C4.75475 3.49095 4.68291 3.41961 4.68291 3.33241C4.68291 3.24522 4.75475 3.17388 4.84256 3.17388H5.64076C5.64076 2.64872 5.21173 2.22266 4.68291 2.22266C4.15409 2.22266 3.72504 2.64872 3.72504 3.17388Z" fill="#DDC0FB"/>
<path d="M5.96007 4.75939C5.96007 5.45992 5.38836 6.02768 4.68292 6.02768C3.97748 6.02768 3.40575 5.45992 3.40575 4.75939V4.36306C3.40575 4.23127 3.29899 4.12524 3.16629 4.12524C3.03358 4.12524 2.92682 4.23127 2.92682 4.36306V4.75939C2.92682 5.64224 3.58735 6.37153 4.44346 6.48743V6.82035H3.96451C3.83181 6.82035 3.72504 6.92638 3.72504 7.05816C3.72504 7.18995 3.83181 7.29598 3.96451 7.29598H5.40132C5.53404 7.29598 5.64077 7.18995 5.64077 7.05816C5.64077 6.92638 5.53404 6.82035 5.40132 6.82035H4.92237V6.48743C5.77849 6.37153 6.43901 5.64224 6.43901 4.75939V4.36306C6.43901 4.23127 6.33224 4.12524 6.19956 4.12524C6.06684 4.12524 5.96007 4.23127 5.96007 4.36306V4.75939Z" fill="#DDC0FB"/>
<path fill-rule="evenodd" clip-rule="evenodd" d="M15.8049 10.9729C15.8049 13.6954 13.5978 15.9025 10.8753 15.9025C8.15268 15.9025 5.94562 13.6954 5.94562 10.9729C5.94562 8.25032 8.15268 6.04321 10.8753 6.04321C13.5978 6.04321 15.8049 8.25032 15.8049 10.9729ZM11.4513 7.40536C12.5221 8.27658 13.2069 9.60485 13.2069 11.0932C13.2069 12.5816 12.5221 13.9115 11.4513 14.781C11.2813 14.9197 11.0321 14.8933 10.8935 14.7233C10.7549 14.5533 10.7813 14.3042 10.9513 14.1656C11.8456 13.4396 12.4149 12.334 12.4149 11.0932C12.4149 9.85238 11.8456 8.74682 10.9513 8.01917C10.7813 7.88056 10.7566 7.63139 10.8935 7.46144C11.0305 7.29149 11.2813 7.26674 11.4513 7.40368V7.40536ZM10.453 8.63463C11.1658 9.21543 11.6228 10.1015 11.6228 11.0932C11.6228 12.0849 11.1658 12.971 10.453 13.5518C10.283 13.6904 10.0339 13.664 9.89524 13.494C9.75666 13.3241 9.78304 13.0749 9.95299 12.9363C10.4893 12.5007 10.8308 11.8374 10.8308 11.0932C10.8308 10.349 10.4893 9.68571 9.95299 9.24844C9.78304 9.10983 9.7583 8.8607 9.89524 8.69075C10.0322 8.52079 10.283 8.49601 10.453 8.63299V8.63463ZM10.0388 11.0932C10.0388 10.5965 9.80946 10.1543 9.45469 9.86394V9.86226C9.28474 9.72532 9.03393 9.75006 8.89695 9.92001C8.76002 10.09 8.78476 10.3391 8.95471 10.4777C9.13293 10.6246 9.24677 10.8457 9.24677 11.0932C9.24677 11.3407 9.13293 11.5618 8.95471 11.707C8.78476 11.8456 8.75838 12.0948 8.89695 12.2648C9.03557 12.4347 9.28474 12.4611 9.45469 12.3225C9.80946 12.0321 10.0388 11.5899 10.0388 11.0932Z" fill="#DDC0FB"/>
<g opacity="0.4">
<path d="M13.2069 11.0932C13.2069 9.60488 12.5221 8.27661 11.4513 7.40539V7.40371C11.2813 7.26677 11.0305 7.29151 10.8935 7.46146C10.7566 7.63142 10.7813 7.88059 10.9513 8.0192C11.8456 8.74685 12.4149 9.85241 12.4149 11.0932C12.4149 12.3341 11.8456 13.4396 10.9513 14.1656C10.7813 14.3042 10.755 14.5534 10.8935 14.7233C11.0321 14.8933 11.2813 14.9197 11.4513 14.7811C12.5221 13.9115 13.2069 12.5816 13.2069 11.0932Z" fill="#DDC0FB"/>
<path d="M11.6228 11.0932C11.6228 10.1015 11.1658 9.21541 10.453 8.63461V8.63297C10.283 8.496 10.0322 8.52078 9.89524 8.69073C9.7583 8.86068 9.78304 9.10981 9.95299 9.24843C10.4893 9.6857 10.8308 10.349 10.8308 11.0932C10.8308 11.8373 10.4893 12.5007 9.95299 12.9363C9.78304 13.0749 9.75666 13.3241 9.89524 13.494C10.0339 13.664 10.283 13.6904 10.453 13.5518C11.1658 12.9709 11.6228 12.0849 11.6228 11.0932Z" fill="#DDC0FB"/>
<path d="M10.0388 11.0932C10.0388 10.5965 9.80945 10.1543 9.45468 9.86388V9.8622C9.28473 9.72527 9.03392 9.75001 8.89695 9.91996C8.76001 10.0899 8.78475 10.3391 8.9547 10.4777C9.13293 10.6245 9.24676 10.8457 9.24676 11.0932C9.24676 11.3406 9.13293 11.5618 8.9547 11.707C8.78475 11.8456 8.75837 12.0947 8.89695 12.2647C9.03556 12.4347 9.28473 12.461 9.45468 12.3224C9.80945 12.032 10.0388 11.5898 10.0388 11.0932Z" fill="#DDC0FB"/>
<path d="M13.2069 11.0932C13.2069 9.60488 12.5221 8.27661 11.4513 7.40539V7.40371C11.2813 7.26677 11.0305 7.29151 10.8935 7.46146C10.7566 7.63142 10.7813 7.88059 10.9513 8.0192C11.8456 8.74685 12.4149 9.85241 12.4149 11.0932C12.4149 12.3341 11.8456 13.4396 10.9513 14.1656C10.7813 14.3042 10.755 14.5534 10.8935 14.7233C11.0321 14.8933 11.2813 14.9197 11.4513 14.7811C12.5221 13.9115 13.2069 12.5816 13.2069 11.0932Z" fill="#DDC0FB"/>
<path d="M11.6228 11.0932C11.6228 10.1015 11.1658 9.21541 10.453 8.63461V8.63297C10.283 8.496 10.0322 8.52078 9.89524 8.69073C9.7583 8.86068 9.78304 9.10981 9.95299 9.24843C10.4893 9.6857 10.8308 10.349 10.8308 11.0932C10.8308 11.8373 10.4893 12.5007 9.95299 12.9363C9.78304 13.0749 9.75666 13.3241 9.89524 13.494C10.0339 13.664 10.283 13.6904 10.453 13.5518C11.1658 12.9709 11.6228 12.0849 11.6228 11.0932Z" fill="#DDC0FB"/>
<path d="M10.0388 11.0932C10.0388 10.5965 9.80945 10.1543 9.45468 9.86388V9.8622C9.28473 9.72527 9.03392 9.75001 8.89695 9.91996C8.76001 10.0899 8.78475 10.3391 8.9547 10.4777C9.13293 10.6245 9.24676 10.8457 9.24676 11.0932C9.24676 11.3406 9.13293 11.5618 8.9547 11.707C8.78475 11.8456 8.75837 12.0947 8.89695 12.2647C9.03556 12.4347 9.28473 12.461 9.45468 12.3224C9.80945 12.032 10.0388 11.5898 10.0388 11.0932Z" fill="#DDC0FB"/>
</g>
</g>
<defs>
<clipPath id="clip0_2034_223">
<rect width="15.6098" height="16" fill="white" transform="translate(0.195129 0.271484)"/>
</clipPath>
</defs>
</svg>
