<svg width="17" height="17" viewBox="0 0 17 17" fill="none" xmlns="http://www.w3.org/2000/svg">
<g clip-path="url(#clip0_2034_72)">
<path opacity="0.4" fill-rule="evenodd" clip-rule="evenodd" d="M8.16997 6.88455C8.16997 5.71655 8.36997 4.51655 9.96997 4.51655C9.76997 2.51655 8.01537 0.716553 5.57497 0.716553C3.0317 0.716553 0.969971 2.77604 0.969971 5.31655C0.969971 7.85707 3.0317 9.91655 5.57497 9.91655C6.43369 9.91655 7.36997 9.71655 8.16997 9.11655V6.88455ZM4.58815 5.31655V3.69155C4.58815 3.15327 5.02793 2.71655 5.56997 2.71655C6.11201 2.71655 6.55177 3.15327 6.55177 3.69155H5.73361C5.64361 3.69155 5.56997 3.76468 5.56997 3.85405C5.56997 3.94343 5.64361 4.01655 5.73361 4.01655H6.55177V4.34155H5.73361C5.64361 4.34155 5.56997 4.41467 5.56997 4.50407C5.56997 4.59343 5.64361 4.66655 5.73361 4.66655H6.55177V4.99155H5.73361C5.64361 4.99155 5.56997 5.06467 5.56997 5.15407C5.56997 5.24343 5.64361 5.31655 5.73361 5.31655H6.55177C6.55177 5.85483 6.11201 6.29155 5.56997 6.29155C5.02793 6.29155 4.58815 5.85483 4.58815 5.31655ZM5.56997 6.61655C6.29305 6.61655 6.87905 6.03459 6.87905 5.31655V4.91031C6.87905 4.77523 6.98849 4.66655 7.12453 4.66655C7.26053 4.66655 7.36997 4.77523 7.36997 4.91031V5.31655C7.36997 6.22147 6.69293 6.96899 5.81541 7.08779V7.42903H6.30633C6.44237 7.42903 6.55177 7.53771 6.55177 7.67279C6.55177 7.80787 6.44237 7.91655 6.30633 7.91655H4.83361C4.69758 7.91655 4.58815 7.80787 4.58815 7.67279C4.58815 7.53771 4.69758 7.42903 4.83361 7.42903H5.32453V7.08779C4.44701 6.96899 3.76997 6.22147 3.76997 5.31655V4.91031C3.76997 4.77523 3.8794 4.66655 4.01543 4.66655C4.15145 4.66655 4.26088 4.77523 4.26088 4.91031V5.31655C4.26088 6.03459 4.8469 6.61655 5.56997 6.61655Z" fill="#A1D7FD"/>
<path d="M4.58815 3.69155V5.31655C4.58815 5.85483 5.02793 6.29155 5.56997 6.29155C6.11201 6.29155 6.55177 5.85483 6.55177 5.31655H5.73361C5.64361 5.31655 5.56997 5.24343 5.56997 5.15407C5.56997 5.06467 5.64361 4.99155 5.73361 4.99155H6.55177V4.66655H5.73361C5.64361 4.66655 5.56997 4.59343 5.56997 4.50407C5.56997 4.41467 5.64361 4.34155 5.73361 4.34155H6.55177V4.01655H5.73361C5.64361 4.01655 5.56997 3.94343 5.56997 3.85405C5.56997 3.76468 5.64361 3.69155 5.73361 3.69155H6.55177C6.55177 3.15327 6.11201 2.71655 5.56997 2.71655C5.02793 2.71655 4.58815 3.15327 4.58815 3.69155Z" fill="#A1D7FD"/>
<path d="M6.87905 5.3165C6.87905 6.03454 6.29305 6.6165 5.56997 6.6165C4.84691 6.6165 4.26088 6.03454 4.26088 5.3165V4.91026C4.26088 4.77518 4.15145 4.6665 4.01543 4.6665C3.87941 4.6665 3.76997 4.77518 3.76997 4.91026V5.3165C3.76997 6.22142 4.44702 6.96894 5.32453 7.08774V7.42898H4.83361C4.69759 7.42898 4.58815 7.53766 4.58815 7.67274C4.58815 7.80782 4.69759 7.9165 4.83361 7.9165H6.30633C6.44237 7.9165 6.55177 7.80782 6.55177 7.67274C6.55177 7.53766 6.44237 7.42898 6.30633 7.42898H5.81541V7.08774C6.69293 6.96894 7.36997 6.22142 7.36997 5.3165V4.91026C7.36997 4.77518 7.26053 4.6665 7.12453 4.6665C6.98849 4.6665 6.87905 4.77518 6.87905 4.91026V5.3165Z" fill="#A1D7FD"/>
<path fill-rule="evenodd" clip-rule="evenodd" d="M10.22 5.11658C9.47537 5.11658 8.86997 5.72198 8.86997 6.46658V14.5666C8.86997 15.3112 9.47537 15.9166 10.22 15.9166H15.62C16.3646 15.9166 16.97 15.3112 16.97 14.5666V8.49158H14.27C13.8966 8.49158 13.595 8.18994 13.595 7.81658V5.11658H10.22ZM14.27 7.81658H16.97L14.27 5.11658V7.81658ZM11.2349 10.6127V10.265H12.6256V13.7415H12.1041C11.9118 13.7415 11.7564 13.8969 11.7564 14.0891C11.7564 14.2815 11.9118 14.4368 12.1041 14.4368H13.8423C14.0346 14.4368 14.19 14.2815 14.19 14.0891C14.19 13.8969 14.0346 13.7415 13.8423 13.7415H13.3209V10.265H14.7115V10.6127C14.7115 10.8049 14.8668 10.9603 15.0591 10.9603C15.2514 10.9603 15.4068 10.8049 15.4068 10.6127V10.0912C15.4068 9.8033 15.1732 9.5697 14.8853 9.5697H12.9732H11.0611C10.7732 9.5697 10.5397 9.8033 10.5397 10.0912V10.6127C10.5397 10.8049 10.695 10.9603 10.8873 10.9603C11.0796 10.9603 11.2349 10.8049 11.2349 10.6127Z" fill="#A1D7FD"/>
<path opacity="0.4" d="M11.2349 10.265V10.6127C11.2349 10.8049 11.0796 10.9603 10.8873 10.9603C10.695 10.9603 10.5396 10.8049 10.5396 10.6127V10.0912C10.5396 9.8033 10.7732 9.5697 11.0611 9.5697H12.9732H14.8853C15.1732 9.5697 15.4068 9.8033 15.4068 10.0912V10.6127C15.4068 10.8049 15.2514 10.9603 15.0591 10.9603C14.8668 10.9603 14.7114 10.8049 14.7114 10.6127V10.265H13.3208V13.7415H13.8423C14.0346 13.7415 14.19 13.8969 14.19 14.0891C14.19 14.2815 14.0346 14.4368 13.8423 14.4368H12.1041C11.9118 14.4368 11.7564 14.2815 11.7564 14.0891C11.7564 13.8969 11.9118 13.7415 12.1041 13.7415H12.6255V10.265H11.2349Z" fill="#A1D7FD"/>
</g>
<defs>
<clipPath id="clip0_2034_72">
<rect width="16" height="16" fill="white" transform="translate(0.969971 0.316528)"/>
</clipPath>
</defs>
</svg>
