<svg width="16" height="17" viewBox="0 0 16 17" fill="none" xmlns="http://www.w3.org/2000/svg">
<g clip-path="url(#clip0_2034_299)">
<mask id="mask0_2034_299" style="mask-type:luminance" maskUnits="userSpaceOnUse" x="0" y="0" width="16" height="17">
<path d="M16 0.226562H0V16.2266H16V0.226562Z" fill="white"/>
</mask>
<g mask="url(#mask0_2034_299)">
<mask id="mask1_2034_299" style="mask-type:luminance" maskUnits="userSpaceOnUse" x="0" y="0" width="16" height="17">
<path d="M16 0.226562H0V16.2266H16V0.226562Z" fill="white"/>
</mask>
<g mask="url(#mask1_2034_299)">
<path d="M7.5 8.72656V14.4766H8.5V12.2266H9.58436C9.79064 12.8078 10.3469 13.2266 11 13.2266C11.8281 13.2266 12.5 12.5547 12.5 11.7266C12.5 10.8984 11.8281 10.2266 11 10.2266C10.3469 10.2266 9.79064 10.6453 9.58436 11.2266H8.5V5.22656H10C10.275 5.22656 10.5 5.45156 10.5 5.72656V5.81092C9.91876 6.0172 9.5 6.57344 9.5 7.22656C9.5 8.05468 10.1719 8.72656 11 8.72656C11.8281 8.72656 12.5 8.05468 12.5 7.22656C12.5 6.57344 12.0812 6.0172 11.5 5.81092V5.72656C11.5 4.89844 10.8281 4.22656 10 4.22656H8.5V1.97656H7.5V4.22656H6.41564C6.20936 3.64531 5.65312 3.22656 5 3.22656C4.17188 3.22656 3.5 3.89844 3.5 4.72656C3.5 5.55468 4.17188 6.22656 5 6.22656C5.65312 6.22656 6.20936 5.8078 6.41564 5.22656H7.5V7.72656H6C5.17188 7.72656 4.5 8.39844 4.5 9.22656V10.3109C3.91875 10.5172 3.5 11.0734 3.5 11.7266C3.5 12.5547 4.17188 13.2266 5 13.2266C5.82812 13.2266 6.5 12.5547 6.5 11.7266C6.5 11.0734 6.08124 10.5172 5.5 10.3109V9.22656C5.5 8.95156 5.725 8.72656 6 8.72656H7.5ZM5.5 4.72656C5.5 4.85916 5.44732 4.98636 5.35356 5.08012C5.2598 5.17388 5.1326 5.22656 5 5.22656C4.8674 5.22656 4.7402 5.17388 4.64644 5.08012C4.55268 4.98636 4.5 4.85916 4.5 4.72656C4.5 4.59396 4.55268 4.46676 4.64644 4.373C4.7402 4.27924 4.8674 4.22656 5 4.22656C5.1326 4.22656 5.2598 4.27924 5.35356 4.373C5.44732 4.46676 5.5 4.59396 5.5 4.72656ZM11 7.72656C10.8674 7.72656 10.7402 7.67388 10.6464 7.58012C10.5527 7.48636 10.5 7.35916 10.5 7.22656C10.5 7.09396 10.5527 6.96676 10.6464 6.873C10.7402 6.77924 10.8674 6.72656 11 6.72656C11.1326 6.72656 11.2598 6.77924 11.3536 6.873C11.4473 6.96676 11.5 7.09396 11.5 7.22656C11.5 7.35916 11.4473 7.48636 11.3536 7.58012C11.2598 7.67388 11.1326 7.72656 11 7.72656ZM5.5 11.7266C5.5 11.8592 5.44732 11.9864 5.35356 12.0801C5.2598 12.1739 5.1326 12.2266 5 12.2266C4.8674 12.2266 4.7402 12.1739 4.64644 12.0801C4.55268 11.9864 4.5 11.8592 4.5 11.7266C4.5 11.594 4.55268 11.4668 4.64644 11.373C4.7402 11.2792 4.8674 11.2266 5 11.2266C5.1326 11.2266 5.2598 11.2792 5.35356 11.373C5.44732 11.4668 5.5 11.594 5.5 11.7266ZM11.5 11.7266C11.5 11.8592 11.4473 11.9864 11.3536 12.0801C11.2598 12.1739 11.1326 12.2266 11 12.2266C10.8674 12.2266 10.7402 12.1739 10.6464 12.0801C10.5527 11.9864 10.5 11.8592 10.5 11.7266C10.5 11.594 10.5527 11.4668 10.6464 11.373C10.7402 11.2792 10.8674 11.2266 11 11.2266C11.1326 11.2266 11.2598 11.2792 11.3536 11.373C11.4473 11.4668 11.5 11.594 11.5 11.7266Z" fill="#FEDF89"/>
<path opacity="0.4" d="M7.5 1.97656C7.5 1.01094 6.71564 0.226562 5.75 0.226562C4.84688 0.226562 4.10312 0.910938 4.00936 1.78594C3.14375 2.00469 2.5 2.79219 2.5 3.72656C2.5 3.91406 2.525 4.09844 2.575 4.27032C1.675 4.4672 1 5.2672 1 6.22656C1 6.69532 1.15938 7.12656 1.43125 7.4672C0.584376 7.8672 0 8.72968 0 9.72656C0 10.7953 0.668748 11.7078 1.6125 12.0641C1.54062 12.2703 1.5 12.4953 1.5 12.7266C1.5 13.8297 2.39688 14.7266 3.5 14.7266C3.675 14.7266 3.84688 14.7047 4.00936 14.6609C4.1 15.5422 4.84688 16.2266 5.75 16.2266C6.71564 16.2266 7.5 15.4422 7.5 14.4766V8.72656H6C5.725 8.72656 5.5 8.95156 5.5 9.22656V10.3109C6.08124 10.5172 6.5 11.0734 6.5 11.7266C6.5 12.5547 5.82812 13.2266 5 13.2266C4.17188 13.2266 3.5 12.5547 3.5 11.7266C3.5 11.0734 3.91875 10.5172 4.5 10.3109V9.22656C4.5 8.39844 5.17188 7.72656 6 7.72656H7.5V5.22656H6.41564C6.20936 5.8078 5.65312 6.22656 5 6.22656C4.17188 6.22656 3.5 5.55468 3.5 4.72656C3.5 3.89844 4.17188 3.22656 5 3.22656C5.65312 3.22656 6.20936 3.64531 6.41564 4.22656H7.5V1.97656ZM8.5 5.22656V11.2266H9.58436C9.79064 10.6453 10.3469 10.2266 11 10.2266C11.8281 10.2266 12.5 10.8984 12.5 11.7266C12.5 12.5547 11.8281 13.2266 11 13.2266C10.3469 13.2266 9.79064 12.8078 9.58436 12.2266H8.5V14.4766C8.5 15.4422 9.28436 16.2266 10.25 16.2266C11.1531 16.2266 11.8969 15.5422 11.9906 14.6609C12.1531 14.7047 12.325 14.7266 12.5 14.7266C13.6031 14.7266 14.5 13.8297 14.5 12.7266C14.5 12.4953 14.4594 12.2703 14.3875 12.0641C15.3312 11.7078 16 10.7953 16 9.72656C16 8.72968 15.4156 7.8672 14.5688 7.4672C14.8406 7.12656 15 6.69532 15 6.22656C15 5.2672 14.325 4.4672 13.425 4.27032C13.475 4.09844 13.5 3.91406 13.5 3.72656C13.5 2.79219 12.8562 2.00469 11.9906 1.78594C11.8938 0.910938 11.1531 0.226562 10.25 0.226562C9.28436 0.226562 8.5 1.01094 8.5 1.97656V4.22656H10C10.8281 4.22656 11.5 4.89844 11.5 5.72656V5.81092C12.0812 6.0172 12.5 6.57344 12.5 7.22656C12.5 8.05468 11.8281 8.72656 11 8.72656C10.1719 8.72656 9.5 8.05468 9.5 7.22656C9.5 6.57344 9.91876 6.0172 10.5 5.81092V5.72656C10.5 5.45156 10.275 5.22656 10 5.22656H8.5Z" fill="#FEDF89"/>
</g>
</g>
</g>
<defs>
<clipPath id="clip0_2034_299">
<rect width="16" height="16" fill="white" transform="translate(0 0.226562)"/>
</clipPath>
</defs>
</svg>
