<svg width="17" height="17" viewBox="0 0 17 17" fill="none" xmlns="http://www.w3.org/2000/svg">
<g clip-path="url(#clip0_2034_439)">
<path opacity="0.4" fill-rule="evenodd" clip-rule="evenodd" d="M0.97998 1.78555C0.97998 1.12146 1.54561 0.581543 2.24132 0.581543H5.39466V2.98955C5.39466 3.32254 5.6765 3.59156 6.02534 3.59156H8.54802V6.08042C7.37998 6.98154 6.37998 7.98154 6.18998 10.2136H2.24132C1.54561 10.2136 0.97998 9.67366 0.97998 9.00958V1.78555Z" fill="#F6B6D8"/>
<path d="M8.54801 2.98955H6.02533V0.581543L8.54801 2.98955Z" fill="#F6B6D8"/>
<path d="M3.18968 5.06051V5.37059C3.18968 5.54207 3.04452 5.68063 2.86486 5.68063C2.68519 5.68063 2.54004 5.54207 2.54004 5.37059V4.90551C2.54004 4.64875 2.75827 4.44043 3.02727 4.44043H6.60026C6.86926 4.44043 7.0875 4.64875 7.0875 4.90551V5.37059C7.0875 5.54207 6.94234 5.68063 6.76266 5.68063C6.58302 5.68063 6.43786 5.54207 6.43786 5.37059V5.06051H5.13858V8.16107H5.62582C5.80546 8.16107 5.95062 8.29963 5.95062 8.47111C5.95062 8.64263 5.80546 8.78119 5.62582 8.78119H4.00172C3.82205 8.78119 3.6769 8.64263 3.6769 8.47111C3.6769 8.29963 3.82205 8.16107 4.00172 8.16107H4.48895V5.06051H3.18968Z" fill="#F6B6D8"/>
<path fill-rule="evenodd" clip-rule="evenodd" d="M16.98 10.7506C16.98 13.5413 14.7177 15.8035 11.9271 15.8035C9.13645 15.8035 6.87421 13.5413 6.87421 10.7506C6.87421 7.96003 9.13645 5.69775 11.9271 5.69775C14.7177 5.69775 16.98 7.96003 16.98 10.7506ZM14.317 10.874C14.317 9.34843 13.6151 7.98695 12.5175 7.09395V7.09223C12.3433 6.95187 12.0862 6.97723 11.9458 7.15143C11.8054 7.32563 11.8308 7.58103 12.005 7.72311C12.9217 8.46895 13.5052 9.60215 13.5052 10.874C13.5052 12.1458 12.9217 13.279 12.005 14.0232C11.8308 14.1653 11.8038 14.4206 11.9458 14.5948C12.0879 14.7691 12.3433 14.7961 12.5175 14.654C13.6151 13.7627 14.317 12.3996 14.317 10.874ZM12.6934 10.874C12.6934 9.85751 12.2249 8.94927 11.4942 8.35395V8.35227C11.32 8.21187 11.063 8.23727 10.9226 8.41147C10.7822 8.58567 10.8076 8.84103 10.9818 8.98311C11.5314 9.43131 11.8816 10.1112 11.8816 10.874C11.8816 11.6368 11.5314 12.3167 10.9818 12.7632C10.8076 12.9052 10.7805 13.1606 10.9226 13.3348C11.0646 13.509 11.32 13.5361 11.4942 13.394C12.2249 12.7987 12.6934 11.8905 12.6934 10.874ZM10.471 9.61399C10.8346 9.91163 11.0697 10.3649 11.0697 10.874C11.0697 11.3831 10.8346 11.8364 10.471 12.134C10.2968 12.2761 10.0414 12.249 9.89933 12.0748C9.75729 11.9006 9.78433 11.6452 9.95853 11.5032C10.1412 11.3543 10.2579 11.1277 10.2579 10.874C10.2579 10.6203 10.1412 10.3937 9.95853 10.2432C9.78433 10.1011 9.75897 9.84567 9.89933 9.67147C10.0397 9.49727 10.2968 9.47191 10.471 9.61227V9.61399Z" fill="#F6B6D8"/>
<g opacity="0.4">
<path d="M14.317 10.874C14.317 9.3484 13.6152 7.98692 12.5175 7.09392V7.09219C12.3433 6.95183 12.0862 6.9772 11.9458 7.1514C11.8055 7.3256 11.8308 7.58099 12.005 7.72307C12.9217 8.46891 13.5052 9.60211 13.5052 10.874C13.5052 12.1458 12.9217 13.279 12.005 14.0232C11.8308 14.1652 11.8038 14.4206 11.9458 14.5948C12.0879 14.769 12.3433 14.7961 12.5175 14.654C13.6152 13.7627 14.317 12.3995 14.317 10.874Z" fill="#F6B6D8"/>
<path d="M12.6934 10.8739C12.6934 9.85746 12.2249 8.94922 11.4943 8.3539V8.35222C11.3201 8.21182 11.063 8.23722 10.9226 8.41142C10.7822 8.58562 10.8076 8.84098 10.9818 8.98306C11.5315 9.43126 11.8816 10.1112 11.8816 10.8739C11.8816 11.6367 11.5315 12.3166 10.9818 12.7631C10.8076 12.9052 10.7806 13.1606 10.9226 13.3348C11.0647 13.509 11.3201 13.5361 11.4943 13.394C12.2249 12.7986 12.6934 11.8904 12.6934 10.8739Z" fill="#F6B6D8"/>
<path d="M11.0698 10.8739C11.0698 10.3649 10.8347 9.91157 10.471 9.61393V9.61221C10.2968 9.47185 10.0398 9.49721 9.89935 9.67141C9.75899 9.84561 9.78435 10.101 9.95855 10.2431C10.1412 10.3936 10.2579 10.6203 10.2579 10.8739C10.2579 11.1276 10.1412 11.3543 9.95855 11.5031C9.78435 11.6452 9.75731 11.9005 9.89935 12.0748C10.0414 12.249 10.2968 12.276 10.471 12.1339C10.8347 11.8363 11.0698 11.383 11.0698 10.8739Z" fill="#F6B6D8"/>
</g>
</g>
<defs>
<clipPath id="clip0_2034_439">
<rect width="16" height="16" fill="white" transform="translate(0.97998 0.181641)"/>
</clipPath>
</defs>
</svg>
