<svg width="110" height="31" viewBox="0 0 110 31" fill="none" xmlns="http://www.w3.org/2000/svg">
<g clip-path="url(#clip0_2004_1924)">
<mask id="mask0_2004_1924" style="mask-type:luminance" maskUnits="userSpaceOnUse" x="1" y="5" width="107" height="22">
<path d="M107.317 5.125H1.7886V26.7975H107.317V5.125Z" fill="white"/>
</mask>
<g mask="url(#mask0_2004_1924)">
<mask id="mask1_2004_1924" style="mask-type:luminance" maskUnits="userSpaceOnUse" x="1" y="5" width="107" height="22">
<path d="M107.317 5.125H1.7886V26.7975H107.317V5.125Z" fill="white"/>
</mask>
<g mask="url(#mask1_2004_1924)">
<path d="M56.783 10.5585C55.7947 10.0441 54.5892 10.1878 53.7496 10.9241L52.156 12.3185L51.692 10.4652C51.6542 10.3139 51.513 10.208 51.3567 10.218L49.7101 10.3038C49.5235 10.3139 49.3848 10.4753 49.4 10.6594L49.6546 13.5364C49.6546 13.5364 49.6546 13.5566 49.6546 13.5641V21.391C49.6546 21.5726 49.8008 21.7188 49.9824 21.7188H52.035C52.2165 21.7188 52.3628 21.5726 52.3628 21.391V14.3105C53.4798 13.4633 55.0457 12.4698 55.83 12.8834C55.9811 12.9741 56.1273 13.0724 56.2687 13.1784C56.6368 13.4557 57.1537 13.4053 57.4386 13.0422L58.2079 12.0512C58.3032 11.9277 58.3032 11.7512 58.2004 11.6352C57.827 11.2166 57.3529 10.8586 56.7803 10.5585H56.783ZM64.2519 9.913C63.0793 9.913 62.0658 10.1777 61.2055 10.7072C60.3457 11.2368 59.6928 11.963 59.2438 12.8859C58.795 13.8087 58.5705 14.8476 58.5705 16.0025C58.5705 17.1574 58.8078 18.1458 59.2819 19.0586C59.7559 19.9739 60.4063 20.6951 61.2333 21.2246C62.0605 21.7541 62.9786 22.0188 63.9894 22.0188C65.0008 22.0188 66.0041 21.8348 66.9046 21.4641C67.7087 21.1338 68.3847 20.7253 68.9342 20.2411C69.0478 20.1403 69.073 19.9764 69.005 19.8403L68.4527 18.7358C68.3594 18.5518 68.1276 18.5013 67.9583 18.6198C67.4842 18.9577 66.97 19.2351 66.4203 19.452C65.747 19.7167 65.1267 19.8503 64.5669 19.8503C63.8609 19.8503 63.2636 19.6612 62.774 19.2855C62.2849 18.9072 61.9217 18.3954 61.6898 17.7448C61.5006 17.2128 61.3924 16.6227 61.3571 15.9798L68.8459 16.0454C69.0329 16.0454 69.1887 15.889 69.1839 15.7024C69.1336 13.8667 68.6873 12.4572 67.8399 11.4738C66.9399 10.4299 65.7443 9.9079 64.2519 9.9079V9.913ZM66.0245 14.3181L61.4782 14.2979C61.5387 14.0458 61.6115 13.8062 61.7101 13.5843C61.9598 13.0296 62.2875 12.6085 62.6985 12.321C63.1072 12.0311 63.5609 11.8874 64.0575 11.8874C64.7634 11.8874 65.2124 12.1395 65.5831 12.5001C65.9918 12.896 66.2714 13.3347 66.3571 13.9298C66.385 14.1315 66.2286 14.3181 66.0245 14.3156V14.3181ZM46.823 18.7409C46.7221 18.5493 46.475 18.5089 46.3086 18.6475C45.9556 18.9376 45.5698 19.1796 45.1461 19.3763C44.5939 19.6335 44.0266 19.7621 43.4491 19.7621C42.7911 19.7621 42.2086 19.6032 41.7043 19.2804C41.1999 18.9603 40.8041 18.5089 40.5242 17.9315C40.2417 17.354 40.1031 16.6959 40.1031 15.9571C40.1031 15.2182 40.2443 14.5375 40.5242 13.9601C40.8041 13.3826 41.2024 12.9363 41.7168 12.6236C42.2313 12.311 42.8163 12.1546 43.4744 12.1546C44.0367 12.1546 44.5813 12.2706 45.1109 12.5026C45.5042 12.6766 45.8597 12.8859 46.1724 13.1355C46.3363 13.2642 46.5809 13.196 46.6691 13.0069L47.2692 11.7284C47.3323 11.5948 47.302 11.4335 47.1912 11.3351C46.7297 10.9317 46.175 10.6013 45.5319 10.3467C44.8007 10.0567 44.019 9.913 43.1844 9.913C42.0296 9.913 41.0084 10.1853 40.1284 10.7325C39.2458 11.2797 38.5599 12.016 38.0707 12.9464C37.5815 13.8768 37.3369 14.9056 37.3369 16.0277C37.3369 17.1497 37.579 18.1458 38.0581 19.0611C38.5398 19.9764 39.2155 20.6976 40.0804 21.2271C40.9478 21.7566 41.9337 22.0214 43.0407 22.0214C43.9888 22.0214 44.8461 21.8399 45.6177 21.4792C46.3086 21.1539 46.891 20.743 47.3626 20.2462C47.4609 20.1428 47.4761 19.9865 47.4104 19.8604L46.8255 18.7383L46.823 18.7409ZM79.6483 10.6947C78.7479 10.1651 77.7446 9.90039 76.6373 9.90039C75.5306 9.90039 74.5267 10.1651 73.6268 10.6947C72.7269 11.2242 72.0257 11.9503 71.5189 12.8733C71.0143 13.7962 70.7599 14.8274 70.7599 15.9672C70.7599 17.1069 71.0121 18.1382 71.5189 19.0611C72.023 19.984 72.7269 20.7102 73.6268 21.2397C74.5245 21.7692 75.528 22.0339 76.6373 22.0339C77.7472 22.0339 78.7479 21.7692 79.6483 21.2397C80.5456 20.7102 81.2495 19.984 81.7535 19.0611C82.2582 18.1382 82.5126 17.1069 82.5126 15.9672C82.5126 14.8274 82.2582 13.7962 81.7535 12.8733C81.2495 11.9503 80.5456 11.2242 79.6483 10.6947ZM79.3457 17.8709C79.0811 18.4484 78.7125 18.9047 78.2384 19.2426C77.7644 19.5805 77.2324 19.7469 76.6373 19.7469C76.0422 19.7469 75.5081 19.578 75.0362 19.2426C74.5621 18.9047 74.1941 18.4484 73.9295 17.8709C73.6648 17.2935 73.5309 16.6505 73.5309 15.9445C73.5309 15.2384 73.6648 14.593 73.9295 14.0054C74.1941 13.4204 74.5621 12.9615 75.0362 12.6338C75.5081 12.3059 76.0422 12.1395 76.6373 12.1395C77.2324 12.1395 77.7644 12.3034 78.2384 12.6338C78.7125 12.964 79.0811 13.4204 79.3457 14.0054C79.6103 14.5904 79.7443 15.2384 79.7443 15.9445C79.7443 16.6505 79.613 17.2935 79.3457 17.8709ZM93.9454 10.2685H91.9153C91.782 10.2685 91.6613 10.3492 91.6103 10.4727L88.824 17.3817C88.824 17.3817 88.8192 17.3968 88.8165 17.4044L88.5594 18.2013H88.5368L88.2792 17.4044C88.2792 17.4044 88.2744 17.3893 88.2717 17.3817L85.4401 10.4727C85.3898 10.3492 85.2687 10.2685 85.1374 10.2685H82.871C82.6337 10.2685 82.4746 10.5131 82.5705 10.73L87.3841 21.4742C87.4371 21.5927 87.5534 21.6683 87.6846 21.6683H89.2273C89.3585 21.6683 89.4747 21.5902 89.5275 21.4717L94.2503 10.7274C94.346 10.5106 94.1868 10.2685 93.9507 10.2685H93.9454ZM106.99 10.2685H104.985C104.803 10.2685 104.656 10.4148 104.656 10.5963V21.3406C104.656 21.5221 104.803 21.6683 104.985 21.6683H106.99C107.171 21.6683 107.317 21.5221 107.317 21.3406V10.5963C107.317 10.4148 107.171 10.2685 106.99 10.2685ZM99.008 10.4626C98.9562 10.3441 98.8399 10.2685 98.7084 10.2685H97.1649C97.0343 10.2685 96.918 10.3441 96.8653 10.4652L92.1424 21.2095C92.0467 21.4262 92.205 21.6683 92.442 21.6683H94.4721C94.6063 21.6683 94.727 21.5877 94.7771 21.4641L97.5637 14.5551C97.5637 14.5551 97.5691 14.54 97.5709 14.5325L97.8284 13.7356H97.8508L98.1084 14.5325C98.1084 14.5325 98.1128 14.5476 98.1155 14.5551L100.948 21.4641C100.998 21.5877 101.119 21.6683 101.25 21.6683H103.517C103.754 21.6683 103.913 21.4237 103.817 21.207L99.0036 10.4626H99.008Z" fill="#FDFBEC"/>
<path d="M7.63601 14.8032C6.91235 14.8032 6.32483 15.3907 6.32483 16.1144C6.32483 16.838 6.91235 17.4255 7.63601 17.4255C8.35971 17.4255 8.94728 16.838 8.94728 16.1144C8.94728 15.3907 8.35971 14.8032 7.63601 14.8032ZM7.63601 9.96439C6.91235 9.96439 6.32483 10.5519 6.32483 11.2755C6.32483 11.9992 6.91235 12.5868 7.63601 12.5868C8.35971 12.5868 8.94728 11.9992 8.94728 11.2755C8.94728 10.5519 8.35971 9.96439 7.63601 9.96439ZM12.4723 19.942C11.915 19.942 11.4637 20.3934 11.4637 20.9507C11.4637 21.5079 11.915 21.9592 12.4723 21.9592C13.0296 21.9592 13.481 21.5079 13.481 20.9507C13.481 20.3934 13.0296 19.942 12.4723 19.942ZM2.79722 15.1058C2.23995 15.1058 1.7886 15.5571 1.7886 16.1144C1.7886 16.6716 2.23995 17.123 2.79722 17.123C3.35448 17.123 3.80583 16.6716 3.80583 16.1144C3.80583 15.5571 3.35448 15.1058 2.79722 15.1058ZM2.79722 10.2669C2.23995 10.2669 1.7886 10.7183 1.7886 11.2755C1.7886 11.8328 2.23995 12.2841 2.79722 12.2841C3.35448 12.2841 3.80583 11.8328 3.80583 11.2755C3.80583 10.7183 3.35448 10.2669 2.79722 10.2669ZM7.63601 7.44288C8.19327 7.44288 8.64464 6.99153 8.64464 6.43419C8.64464 5.87695 8.19327 5.42559 7.63601 5.42559C7.07876 5.42559 6.62742 5.87695 6.62742 6.43419C6.62742 6.99153 7.07876 7.44288 7.63601 7.44288ZM22.15 7.44288C22.7072 7.44288 23.1586 6.99153 23.1586 6.43419C23.1586 5.87695 22.7072 5.42559 22.15 5.42559C21.5927 5.42559 21.1414 5.87695 21.1414 6.43419C21.1414 6.99153 21.5927 7.44288 22.15 7.44288ZM26.9887 12.2816C27.546 12.2816 27.9974 11.8303 27.9974 11.273C27.9974 10.7158 27.546 10.2644 26.9887 10.2644C26.4315 10.2644 25.9801 10.7158 25.9801 11.273C25.9801 11.8303 26.4315 12.2816 26.9887 12.2816ZM17.3111 7.74543C18.0348 7.74543 18.6224 7.15787 18.6224 6.43419C18.6224 5.71052 18.0348 5.12305 17.3111 5.12305C16.5875 5.12305 15.9999 5.71052 15.9999 6.43419C15.9999 7.15787 16.5875 7.74543 17.3111 7.74543ZM12.4723 7.74543C13.1961 7.74543 13.7835 7.15787 13.7835 6.43419C13.7835 5.71052 13.1961 5.12305 12.4723 5.12305C11.7486 5.12305 11.1611 5.71052 11.1611 6.43419C11.1611 7.15787 11.7486 7.74543 12.4723 7.74543ZM12.4723 14.5006C11.5823 14.5006 10.8585 15.2218 10.8585 16.1144C10.8585 17.007 11.5797 17.7282 12.4723 17.7282C13.3649 17.7282 14.0861 17.007 14.0861 16.1144C14.0861 15.2218 13.3649 14.5006 12.4723 14.5006ZM22.15 14.8032C21.4263 14.8032 20.8387 15.3907 20.8387 16.1144C20.8387 16.838 21.4263 17.4255 22.15 17.4255C22.8736 17.4255 23.4611 16.838 23.4611 16.1144C23.4611 15.3907 22.8736 14.8032 22.15 14.8032ZM22.15 9.96439C21.4263 9.96439 20.8387 10.5519 20.8387 11.2755C20.8387 11.9992 21.4263 12.5868 22.15 12.5868C22.8736 12.5868 23.4611 11.9992 23.4611 11.2755C23.4611 10.5519 22.8736 9.96439 22.15 9.96439ZM26.9887 15.1058C26.4315 15.1058 25.9801 15.5571 25.9801 16.1144C25.9801 16.6716 26.4315 17.123 26.9887 17.123C27.546 17.123 27.9974 16.6716 27.9974 16.1144C27.9974 15.5571 27.546 15.1058 26.9887 15.1058ZM26.9887 20.2446C26.5979 20.2446 26.2827 20.5599 26.2827 20.9507C26.2827 21.3415 26.5979 21.6567 26.9887 21.6567C27.3796 21.6567 27.6948 21.3415 27.6948 20.9507C27.6948 20.5599 27.3796 20.2446 26.9887 20.2446ZM22.15 19.942C21.5927 19.942 21.1414 20.3934 21.1414 20.9507C21.1414 21.5079 21.5927 21.9592 22.15 21.9592C22.7072 21.9592 23.1586 21.5079 23.1586 20.9507C23.1586 20.3934 22.7072 19.942 22.15 19.942ZM17.3111 14.5006C16.421 14.5006 15.6973 15.2218 15.6973 16.1144C15.6973 17.007 16.4185 17.7282 17.3111 17.7282C18.2037 17.7282 18.9249 17.007 18.9249 16.1144C18.9249 15.2218 18.2037 14.5006 17.3111 14.5006ZM17.3111 9.66175C16.421 9.66175 15.6973 10.3829 15.6973 11.2755C15.6973 12.1682 16.4185 12.8893 17.3111 12.8893C18.2037 12.8893 18.9249 12.1682 18.9249 11.2755C18.9249 10.3829 18.2037 9.66175 17.3111 9.66175ZM17.3111 19.3369C16.421 19.3369 15.6973 20.058 15.6973 20.9507C15.6973 21.8433 16.4185 22.5645 17.3111 22.5645C18.2037 22.5645 18.9249 21.8433 18.9249 20.9507C18.9249 20.058 18.2037 19.3369 17.3111 19.3369ZM17.3111 24.7809C16.7539 24.7809 16.3025 25.2322 16.3025 25.7895C16.3025 26.3467 16.7539 26.7981 17.3111 26.7981C17.8684 26.7981 18.3197 26.3467 18.3197 25.7895C18.3197 25.2322 17.8684 24.7809 17.3111 24.7809ZM12.4723 9.66175C11.5823 9.66175 10.8585 10.3829 10.8585 11.2755C10.8585 12.1682 11.5797 12.8893 12.4723 12.8893C13.3649 12.8893 14.0861 12.1682 14.0861 11.2755C14.0861 10.3829 13.3649 9.66175 12.4723 9.66175Z" fill="url(#paint0_linear_2004_1924)"/>
</g>
</g>
</g>
<defs>
<linearGradient id="paint0_linear_2004_1924" x1="25.3598" y1="7.43779" x2="5.99451" y2="22.0324" gradientUnits="userSpaceOnUse">
<stop offset="0.08" stop-color="#285EF5"/>
<stop offset="0.9" stop-color="#510BF5"/>
</linearGradient>
<clipPath id="clip0_2004_1924">
<rect width="110" height="30" fill="white" transform="translate(-1.52588e-05 0.856445)"/>
</clipPath>
</defs>
</svg>
