<svg width="24" height="24" viewBox="0 0 24 24" fill="none" xmlns="http://www.w3.org/2000/svg">
<path d="M11.875 13C16.0052 13 19.5 16.455 19.5 20.3888V22.375C19.5 22.6071 19.4078 22.8296 19.2437 22.9937C19.0796 23.1578 18.8571 23.25 18.625 23.25H5.125C4.89294 23.25 4.67038 23.1578 4.50628 22.9937C4.34219 22.8296 4.25 22.6071 4.25 22.375V20.3888C4.25 16.455 7.74475 13 11.875 13ZM11.875 14.25C8.432 14.25 5.5 17.1488 5.5 20.3888V22H18.25V20.3888C18.25 17.181 15.3765 14.308 11.9782 14.2507L11.875 14.25ZM11.875 1C12.8886 1 13.8795 1.30058 14.7223 1.86372C15.5651 2.42686 16.222 3.22728 16.6099 4.16375C16.9978 5.10022 17.0993 6.13069 16.9015 7.12484C16.7038 8.11899 16.2157 9.03218 15.4989 9.74892C14.7822 10.4657 13.869 10.9538 12.8748 11.1515C11.8807 11.3493 10.8502 11.2478 9.91375 10.8599C8.97728 10.472 8.17686 9.8151 7.61372 8.9723C7.05058 8.1295 6.75 7.13863 6.75 6.125C6.75 4.76577 7.28995 3.4622 8.25108 2.50108C9.2122 1.53995 10.5158 1 11.875 1ZM11.875 2.25C11.1086 2.25 10.3594 2.47726 9.72217 2.90306C9.08492 3.32885 8.58826 3.93404 8.29497 4.6421C8.00168 5.35017 7.92494 6.1293 8.07446 6.88097C8.22397 7.63265 8.59303 8.32311 9.13496 8.86504C9.67689 9.40697 10.3673 9.77603 11.119 9.92554C11.8707 10.0751 12.6498 9.99832 13.3579 9.70503C14.066 9.41174 14.6712 8.91508 15.0969 8.27783C15.5227 7.64059 15.75 6.8914 15.75 6.125C15.75 5.09729 15.3417 4.11166 14.615 3.38496C13.8883 2.65826 12.9027 2.25 11.875 2.25Z" fill="black"/>
</svg>
