<svg width="24" height="24" viewBox="0 0 24 24" fill="none" xmlns="http://www.w3.org/2000/svg">
<path d="M18.205 17.832C18.6995 17.832 19.1828 17.9786 19.5939 18.2533C20.0051 18.528 20.3255 18.9185 20.5147 19.3753C20.7039 19.8321 20.7534 20.3348 20.657 20.8197C20.5605 21.3047 20.3224 21.7501 19.9728 22.0998C19.6231 22.4494 19.1777 22.6875 18.6927 22.784C18.2078 22.8804 17.7051 22.8309 17.2483 22.6417C16.7915 22.4525 16.401 22.132 16.1263 21.7209C15.8516 21.3098 15.705 20.8265 15.705 20.332C15.705 19.669 15.9684 19.0331 16.4372 18.5642C16.9061 18.0954 17.542 17.832 18.205 17.832ZM9.46901 17.832C9.96346 17.832 10.4468 17.9786 10.8579 18.2533C11.269 18.528 11.5895 18.9185 11.7787 19.3753C11.9679 19.8321 12.0174 20.3348 11.921 20.8197C11.8245 21.3047 11.5864 21.7501 11.2368 22.0998C10.8871 22.4494 10.4417 22.6875 9.95673 22.784C9.47177 22.8804 8.96911 22.8309 8.5123 22.6417C8.05548 22.4525 7.66504 22.132 7.39034 21.7209C7.11563 21.3098 6.96901 20.8265 6.96901 20.332C6.96901 19.669 7.23239 19.0331 7.70123 18.5642C8.17007 18.0954 8.80597 17.832 9.46901 17.832ZM18.205 19.082C17.9578 19.082 17.7161 19.1553 17.5105 19.2927C17.305 19.43 17.1448 19.6252 17.0502 19.8536C16.9555 20.0821 16.9308 20.3334 16.979 20.5759C17.0273 20.8183 17.1463 21.0411 17.3211 21.2159C17.4959 21.3907 17.7187 21.5098 17.9611 21.558C18.2036 21.6062 18.4549 21.5815 18.6833 21.4868C18.9118 21.3922 19.107 21.232 19.2443 21.0265C19.3817 20.8209 19.455 20.5792 19.455 20.332C19.455 20.0005 19.3233 19.6825 19.0889 19.4481C18.8545 19.2137 18.5365 19.082 18.205 19.082ZM9.46901 19.082C9.22178 19.082 8.9801 19.1553 8.77454 19.2927C8.56897 19.43 8.40876 19.6252 8.31415 19.8536C8.21954 20.0821 8.1948 20.3334 8.24303 20.5759C8.29126 20.8183 8.4103 21.0411 8.58511 21.2159C8.75993 21.3907 8.98267 21.5098 9.22514 21.558C9.46762 21.6062 9.71895 21.5815 9.94736 21.4868C10.1758 21.3922 10.371 21.232 10.5083 21.0265C10.6457 20.8209 10.719 20.5792 10.719 20.332C10.719 20.0005 10.5873 19.6825 10.3529 19.4481C10.1185 19.2137 9.80053 19.082 9.46901 19.082ZM3.42075 1.25C3.62102 1.25344 3.81527 1.31911 3.97653 1.43791C4.1378 1.55671 4.2581 1.72275 4.32076 1.913L4.33376 1.959L5.13576 5.032H22.6447C22.7662 5.03037 22.8864 5.05621 22.9965 5.10759C23.1065 5.15896 23.2036 5.23454 23.2803 5.32869C23.357 5.42283 23.4115 5.53309 23.4396 5.65125C23.4678 5.7694 23.4688 5.89238 23.4427 6.011L23.4328 6.056L21.0827 15.129C21.0299 15.3222 20.9182 15.4941 20.7632 15.621C20.6082 15.7479 20.4176 15.8234 20.2178 15.837L20.1678 15.839H7.39275C7.19265 15.8354 6.99861 15.7698 6.8374 15.6512C6.67619 15.5326 6.55577 15.3669 6.49275 15.177L6.47975 15.13L3.18175 2.501H0.278748V1.251L3.42075 1.25ZM22.0827 6.282H5.46275L7.63075 14.589H19.9308L22.0827 6.282Z" fill="black"/>
</svg>
