<svg width="176" height="89" viewBox="0 0 176 89" fill="none" xmlns="http://www.w3.org/2000/svg">
<path fill-rule="evenodd" clip-rule="evenodd" d="M21.45 29.0117C19.492 30.1522 21.2727 33.5921 23.2681 32.5242C24.8552 31.675 24.8706 29.8063 23.2971 28.9642C22.3419 28.4529 22.4127 28.4511 21.45 29.0117ZM28.9656 29.0865C27.8071 30.0202 27.6742 31.1307 28.6101 32.0666C29.0884 32.5449 29.7656 32.9365 30.1149 32.9365C30.991 32.9365 32.1077 31.2319 31.8054 30.3559C31.5546 29.6299 30.422 28.5365 29.92 28.5365C29.7704 28.5365 29.341 28.7842 28.9656 29.0865ZM13.9335 29.71C13.4363 30.2072 13.6083 31.4827 14.2441 32.0103C15.4832 33.0386 17.2621 31.2597 16.2338 30.0206C15.7062 29.3848 14.4307 29.2128 13.9335 29.71ZM35.93 30.0527C35.3817 31.481 36.6555 32.7548 38.0838 32.2065C38.5172 32.0402 38.7187 31.521 38.6338 30.7902C38.5326 29.9155 38.221 29.6039 37.3463 29.5027C36.6155 29.4178 36.0963 29.6193 35.93 30.0527ZM20.8525 36.684C19.6513 37.8852 19.7362 39.2721 21.0742 40.2907C22.4611 41.3471 24.2339 40.629 24.8235 38.7722C25.0545 38.044 24.849 37.5055 24.0275 36.684C23.4181 36.0746 22.704 35.5765 22.44 35.5765C22.176 35.5765 21.4619 36.0746 20.8525 36.684ZM28.3602 36.6567C27.7662 37.2507 27.28 37.9169 27.28 38.1373C27.28 38.9509 29.1298 40.8565 29.92 40.8565C30.7102 40.8565 32.56 38.9509 32.56 38.1373C32.56 37.5745 30.5004 35.5765 29.92 35.5765C29.656 35.5765 28.9542 36.0627 28.3602 36.6567ZM67.54 36.4253C63.188 37.4755 60.3548 41.7545 60.8203 46.5734C61.2212 50.7231 63.5584 53.5245 67.4982 54.5783C69.8482 55.2067 72.7492 54.6369 74.8638 53.1312C76.2617 52.1355 76.4038 51.5331 75.5242 50.3301C74.9478 49.5417 74.8664 49.5456 72.9656 50.4661C70.6442 51.5899 69.4923 51.6523 67.7455 50.749C66.0422 49.8681 65.1196 47.9832 65.1218 45.3885C65.124 42.4827 66.3256 40.618 68.6435 39.9237C70.2376 39.4459 70.7045 39.4903 72.6312 40.3047L74.8136 41.2265L75.4631 39.9703C76.0778 38.7819 76.0527 38.6675 74.9984 37.8381C74.3855 37.3563 72.8926 36.7491 71.6804 36.4891C69.2626 35.9707 69.414 35.9729 67.54 36.4253ZM100.038 36.4226C96.1215 37.3946 93.8027 40.3452 93.3918 44.8781C92.9504 49.7419 96.2606 54.1379 100.835 54.7649C103.116 55.0773 106.593 54.1265 108.417 52.6912C109.381 51.9331 109.461 51.6805 109.032 50.7385C108.437 49.4339 108.393 49.4308 105.978 50.5268C103.66 51.5789 101.301 51.6585 99.9755 50.7297C98.8183 49.9196 97.68 47.8705 97.68 46.5985C97.68 45.7357 97.9273 45.6965 103.374 45.6965C106.947 45.6965 109.177 45.5209 109.359 45.2253C109.864 44.4086 109.116 40.9806 108.106 39.4824C106.399 36.9489 103.044 35.6768 100.038 36.4226ZM118.99 36.4107C116.797 36.966 114.907 38.2957 113.623 40.1855C112.558 41.7541 112.42 42.3635 112.42 45.5139C112.42 48.7127 112.547 49.2552 113.68 50.8894C115.104 52.9455 118.608 54.9365 120.801 54.9365C128.342 54.9365 132.67 46.3407 128.354 39.9329C126.53 37.2252 122.202 35.5972 118.99 36.4107ZM13.4935 36.75C12.8524 37.3906 13.2198 39.5163 14.0483 39.9593C15.7494 40.8697 17.6255 39.0283 16.72 37.3365C16.2606 36.4785 14.1486 36.0944 13.4935 36.75ZM35.6572 37.3048C34.764 38.9737 36.5834 40.8842 38.2281 40.0042C39.3074 39.4269 39.5705 38.6684 39.1164 37.4465C38.6355 36.1529 36.3242 36.0583 35.6572 37.3048ZM80.5174 36.7649L79.4147 36.9343L79.552 45.1654C79.6277 49.6926 79.7755 53.6561 79.8811 53.9733C80.0056 54.3478 80.6529 54.5022 81.7265 54.4133L83.38 54.2765L83.5041 48.8047C83.5833 45.326 83.8235 43.0957 84.1641 42.6829C84.4589 42.3257 85.5092 41.6745 86.4983 41.2362C88.0198 40.5613 88.5148 40.5212 89.7156 40.9744C91.0228 41.4677 91.2014 41.4237 91.9776 40.4134C93.1049 38.9465 93.0701 38.7837 91.41 37.7717C89.3609 36.5221 87.5732 36.6637 85.3851 38.2491C84.3581 38.9927 83.479 39.5374 83.4315 39.4591C83.3835 39.3807 83.1547 38.7388 82.9224 38.0326C82.4661 36.6453 82.2017 36.5058 80.5174 36.7649ZM6.1402 37.5807C5.6672 38.1505 5.7178 38.4101 6.44556 39.1374C7.78492 40.4772 9.6338 39.3143 8.95928 37.5565C8.62796 36.6937 6.86356 36.7086 6.1402 37.5807ZM43.6647 37.4078C42.8644 38.2081 42.999 39.0006 44.0282 39.5515C45.1827 40.1697 46.2999 39.3561 46.1111 38.0352C45.9598 36.9744 44.4778 36.5947 43.6647 37.4078ZM130.24 37.2388C130.24 37.4267 131.445 40.2484 132.918 43.5088C134.391 46.7688 136.069 50.4881 136.646 51.7738C137.663 54.0376 137.746 54.1067 139.307 53.9738L140.917 53.8365L144.599 45.4941C146.623 40.9058 148.28 37.0835 148.28 36.9999C148.28 36.9163 147.34 36.9088 146.19 36.9823L144.1 37.1165L141.9 42.7129C140.69 45.7907 139.591 48.3154 139.457 48.3229C139.324 48.3303 138.161 45.7625 136.873 42.6165L134.533 36.8965H132.386C131.206 36.8965 130.24 37.0505 130.24 37.2388ZM151.417 38.7397C150.968 39.7829 149.56 43.0125 148.287 45.9165C147.013 48.8205 145.696 51.8402 145.36 52.6265L144.748 54.0565L146.844 54.0521L148.94 54.0481L151.087 48.6621C152.268 45.7 153.372 43.1229 153.541 42.9351C153.709 42.7476 154.896 45.1729 156.178 48.3251L158.51 54.0565H160.655C161.835 54.0565 162.8 53.8761 162.8 53.6557C162.8 53.4352 162.125 51.8019 161.299 50.0257C160.473 48.2498 158.832 44.6185 157.651 41.9565C155.513 37.1337 155.499 37.1161 153.868 36.9797C152.315 36.8499 152.19 36.9392 151.417 38.7397ZM164.12 45.4523V54.0565H166.33H168.539L168.42 45.5865L168.3 37.1165L166.21 36.9823L164.12 36.8481V45.4523ZM100.477 39.533C99.4409 39.951 98.12 41.6107 98.12 42.4946C98.12 43.2158 104.523 43.2906 104.966 42.5747C105.406 41.8623 104.341 40.1455 103.111 39.5849C101.876 39.0226 101.748 39.0199 100.477 39.533ZM119.68 39.8309C118.306 40.3672 117.118 41.865 116.6 43.7143C115.168 48.8293 120.224 53.4075 123.766 50.2021C127.312 46.9932 125.977 40.4763 121.631 39.7803C120.921 39.6663 120.043 39.6892 119.68 39.8309ZM13.97 43.9717C12.7261 44.6964 12.9633 46.9276 14.3515 47.5599C15.3683 48.0232 15.6006 47.9647 16.3315 47.0618C17.3738 45.7748 17.3677 45.4642 16.28 44.3765C15.2856 43.3821 15.0524 43.3412 13.97 43.9717ZM20.4389 44.567C19.6491 45.7722 20.0768 47.1027 21.4988 47.8639C23.8665 49.1307 26.2249 45.3485 24.0121 43.8331C22.9755 43.1234 21.1376 43.5009 20.4389 44.567ZM27.9189 44.567C27.1159 45.7924 27.5612 47.1049 29.0501 47.9018C30.0986 48.4632 31.4235 47.878 32.1411 46.5369C32.8592 45.1953 31.6184 43.4965 29.92 43.4965C29.0286 43.4965 28.3998 43.8331 27.9189 44.567ZM36.08 44.3765C35.596 44.8605 35.2 45.4545 35.2 45.6965C35.2 45.9385 35.596 46.5325 36.08 47.0165C36.564 47.5005 37.158 47.8965 37.4 47.8965C37.642 47.8965 38.236 47.5005 38.72 47.0165C39.204 46.5325 39.6 45.9385 39.6 45.6965C39.6 45.4545 39.204 44.8605 38.72 44.3765C38.236 43.8925 37.642 43.4965 37.4 43.4965C37.158 43.4965 36.564 43.8925 36.08 44.3765ZM6.16 45.0365C5.4362 45.9086 6.30168 47.0165 7.7066 47.0165C8.25616 47.0165 8.8198 46.7195 8.95928 46.3565C9.36628 45.2957 8.78504 44.3765 7.7066 44.3765C7.15748 44.3765 6.4614 44.6735 6.16 45.0365ZM43.3343 45.2754C42.9546 46.4709 43.593 47.1344 44.9394 46.9439C45.7169 46.8339 45.98 46.5184 45.98 45.6965C45.98 44.1829 43.7914 43.8344 43.3343 45.2754ZM28.2141 51.5789C26.9878 52.8843 27.1168 53.8972 28.655 55.0447C29.5896 55.7417 29.9869 55.8117 30.7349 55.4113C32.377 54.5326 32.7703 53.2284 31.7909 51.9115C30.6486 50.3759 29.4492 50.2641 28.2141 51.5789ZM21.648 51.9445C20.9172 52.6753 20.988 53.8391 21.8042 54.5163C22.3753 54.9906 22.6424 54.9299 23.426 54.1458C24.3399 53.2319 24.3434 53.184 23.5541 52.3119C22.6138 51.2731 22.367 51.2255 21.648 51.9445ZM36.3554 52.2353C35.4706 53.213 35.4684 53.382 36.3304 54.2444C37.2002 55.1143 38.72 54.4349 38.72 53.1765C38.72 51.8605 37.231 51.2678 36.3554 52.2353ZM43.78 52.7365C43.3739 53.3939 43.9388 54.0565 44.906 54.0565C45.4665 54.0565 45.76 53.7542 45.76 53.1765C45.76 52.2433 44.2873 51.9159 43.78 52.7365ZM28.4196 60.0524C28.0452 61.0274 28.9806 62.0478 30.1013 61.8876C30.7349 61.7974 31.0631 61.3807 31.159 60.5465C31.2836 59.4676 31.1573 59.3365 29.9961 59.3365C29.1997 59.3365 28.5877 59.6141 28.4196 60.0524Z" fill="#686868"/>
</svg>
