<svg width="176" height="89" viewBox="0 0 176 89" fill="none" xmlns="http://www.w3.org/2000/svg">
<mask id="mask0_2004_1441" style="mask-type:luminance" maskUnits="userSpaceOnUse" x="7" y="32" width="162" height="26">
<path d="M168.96 32.4965H7.91998V57.7028H168.96V32.4965Z" fill="white"/>
</mask>
<g mask="url(#mask0_2004_1441)">
<path fill-rule="evenodd" clip-rule="evenodd" d="M149.891 41.3505V52.6559L159.004 57.5106V45.015L153.153 42.6673L159.004 40.2928V37.6633L149.891 41.3505Z" fill="#686868"/>
<path fill-rule="evenodd" clip-rule="evenodd" d="M159.679 40.2921L165.525 42.6666L159.679 45.0159V57.5108L168.793 52.6561V41.3506L159.679 37.6635V40.2921Z" fill="#686868"/>
<path fill-rule="evenodd" clip-rule="evenodd" d="M67.8893 38.9928C63.2645 38.9928 59.5018 42.8619 59.5018 47.6142C59.5018 52.333 63.2645 56.1728 67.8893 56.1728C71.6939 56.1728 74.5767 54.2412 75.6729 50.9843H71.6268C70.8812 52.229 69.4872 52.9621 67.8616 52.9621C66.289 52.9621 64.9134 52.2752 63.9875 51.0238L63.7568 50.7126L75.8801 45.618C75.0464 41.5861 71.9363 38.9928 67.8893 38.9928ZM62.9247 47.8508L62.9432 47.3752C63.0439 44.3784 65.1114 42.2018 67.8616 42.2018C69.3076 42.2018 70.585 42.7864 71.4557 43.8306L71.7157 44.1494L62.9247 47.8508ZM59.0514 42.6665C59.6847 41.4268 60.5595 40.323 61.6079 39.4247H55.2527V33.3353H51.5153V39.4247H47.1546V33.3353H43.4179V39.4247H38.9592C39.9883 40.3163 40.838 41.4176 41.4511 42.6665H43.4179V48.9345C43.4179 51.0137 43.9673 52.7399 44.9998 53.9292C46.2244 55.3333 48.0571 55.9573 50.414 55.7719V52.4135C48.2215 52.4454 47.1546 51.3181 47.1546 48.9638V42.6665H51.5153V48.9345C51.5153 51.0137 52.0613 52.7399 53.0972 53.9292C54.3159 55.3333 56.151 55.9607 58.5121 55.7719V52.4135C56.3339 52.4446 55.2527 51.3181 55.2527 48.9638V42.6665H59.0514ZM32.5528 38.9928C27.7535 38.9928 24.1326 42.7042 24.1326 47.6142C24.1326 52.3154 27.6462 56.1351 31.9589 56.1351C33.9577 56.1351 35.7157 55.4087 36.9076 54.0952L37.4385 53.5123V55.7719H40.9462V47.6142C40.9462 42.7042 37.3371 38.9928 32.5528 38.9928ZM32.5528 52.7323C29.9443 52.7323 27.9003 50.497 27.9003 47.6469C27.9003 44.7441 29.9443 42.4677 32.5528 42.4677C35.1194 42.4677 37.2079 44.7893 37.2079 47.6469C37.2079 50.4518 35.1194 52.7323 32.5528 52.7323ZM15.2544 38.9928C10.9365 38.9928 7.91956 41.9854 7.91956 46.2647V55.7719H11.657V46.1666C11.657 44.1175 13.1702 42.6346 15.2544 42.6346C18.5063 42.6346 18.7545 45.3404 18.7545 46.1666V55.7719H22.4912V46.2647C22.4912 41.847 19.6512 38.9928 15.2544 38.9928ZM77.4527 46.2647V55.7719H81.1919V46.2647C81.1919 43.9984 82.7537 42.471 85.0829 42.471C85.3177 42.471 85.5551 42.4886 85.8042 42.518V39.0657C85.4184 39.0246 85.0401 39.0028 84.676 39.0028C80.2911 39.0028 77.4527 41.8512 77.4527 46.2647ZM136.543 42.18V39.4247H132.803V42.4131C132.803 44.4958 131.488 45.9418 129.602 45.9418C127.734 45.9418 126.432 44.4958 126.432 42.4131V39.4247H122.697V42.18C122.697 44.3725 123.41 46.1598 124.764 47.3543L125.025 47.5832L124.764 47.8139C123.41 49.0074 122.697 50.7965 122.697 52.9873V55.7719H126.432V52.7541C126.432 50.6706 127.734 49.2179 129.602 49.2179C131.488 49.2179 132.803 50.6706 132.803 52.7541V55.7719H136.543V52.9873C136.543 50.8938 135.748 49.0578 134.308 47.8139L134.041 47.5832L134.308 47.3543C135.768 46.0894 136.543 44.3021 136.543 42.18ZM113.57 38.9928C108.962 38.9928 105.346 42.7864 105.346 47.6142C105.346 52.4135 108.962 56.1728 113.57 56.1728C118.201 56.1728 121.826 52.4135 121.826 47.6142C121.826 42.7864 118.201 38.9928 113.57 38.9928ZM113.57 52.7935C111.011 52.7935 109.084 50.5851 109.084 47.6469C109.084 44.6409 111.011 42.3704 113.57 42.3704C116.13 42.3704 118.062 44.6409 118.062 47.6469C118.062 50.5851 116.13 52.7935 113.57 52.7935ZM96.3565 39.0657C94.4108 39.0657 92.8268 39.6964 91.6388 40.9454L91.109 41.4956V33.3353H87.3424V47.6142C87.3424 52.4891 90.9638 56.1728 95.7625 56.1728C100.547 56.1728 104.153 52.4891 104.153 47.6142C104.153 42.8988 100.655 39.0657 96.3565 39.0657ZM95.7625 52.7323C93.199 52.7323 91.109 50.4518 91.109 47.6469C91.109 44.7893 93.199 42.4677 95.7625 42.4677C98.3717 42.4677 100.419 44.7441 100.419 47.6469C100.419 50.497 98.3717 52.7323 95.7625 52.7323Z" fill="#686868"/>
</g>
</svg>
