<svg width="176" height="89" viewBox="0 0 176 89" fill="none" xmlns="http://www.w3.org/2000/svg">
<path fill-rule="evenodd" clip-rule="evenodd" d="M41.1268 44.1565C41.1268 58.9185 41.1822 64.8937 41.25 57.4348C41.3173 49.9759 41.3173 37.8979 41.2496 30.5948C41.1818 23.2917 41.1268 29.3945 41.1268 44.1565ZM0.215599 32.5031C-0.160161 33.1121 14.0606 56.3357 14.6841 56.1307C15.5619 55.8416 19.345 49.4757 19.2051 48.5226C19.1316 48.0197 16.9308 44.109 14.3154 39.8326L9.55944 32.0565H5.02568C2.43188 32.0565 0.373999 32.2475 0.215599 32.5031ZM20.478 32.4675C20.1397 33.0148 24.1212 39.54 24.783 39.5233C25.3876 39.5079 29.04 33.6581 29.04 32.7046C29.04 32.1797 28.252 32.0565 24.886 32.0565C22.601 32.0565 20.6175 32.2413 20.478 32.4675ZM54.5763 37.4188C54.5855 37.7365 55.546 41.0655 56.7112 44.8165C58.6837 51.1661 58.9081 51.6457 59.9636 51.7729C61.0584 51.9045 61.1644 51.6946 63.081 45.6129C66.0084 36.3214 65.9366 36.8965 64.167 36.8965H62.678L61.3976 41.8214C60.6931 44.5305 60.0477 46.5391 59.9632 46.2857C59.8787 46.0322 59.2539 43.8652 58.575 41.4707C57.3668 37.2102 57.3104 37.1134 55.9504 36.9788C55.0198 36.8864 54.5653 37.032 54.5763 37.4188ZM71.7222 41.3801C70.9676 43.8749 69.9653 47.0935 69.4949 48.5319C69.0246 49.9702 68.64 51.3069 68.64 51.5019C68.64 51.6968 69.3083 51.8565 70.125 51.8565C71.423 51.8565 71.6434 51.6902 71.874 50.5365C72.1195 49.3085 72.2735 49.2165 74.0859 49.2165C75.8547 49.2165 76.0764 49.3379 76.494 50.5365C76.8838 51.655 77.1835 51.8565 78.4533 51.8565H79.952L77.6604 44.4865C75.5163 37.5891 75.2963 37.1077 74.2315 36.9801C73.146 36.8494 73.0316 37.0505 71.7222 41.3801ZM85.36 44.3765V51.8565H89.98C94.5925 51.8565 94.6 51.8547 94.6 50.7759C94.6 49.7392 94.4689 49.6899 91.41 49.5659L88.22 49.4365L88.0981 43.1665L87.9758 36.8965H86.6681H85.36V44.3765ZM96.8 37.058C96.8 37.1464 97.786 39.0771 98.9916 41.348C101.034 45.1953 101.184 45.6934 101.192 48.6665L101.2 51.8565H102.52H103.84V48.4861C103.84 45.2759 103.945 44.9203 106.055 41.0061L108.271 36.8965H106.587C104.975 36.8965 104.851 37.0034 103.663 39.4252L102.423 41.9534L101.145 39.4252C99.9566 37.0756 99.7572 36.8965 98.3329 36.8965C97.4899 36.8965 96.8 36.9691 96.8 37.058ZM113.512 42.6992C112.515 45.9209 111.515 49.1307 111.29 49.8321C110.686 51.7122 110.752 51.8565 112.223 51.8565C113.319 51.8565 113.65 51.6145 114.026 50.5365C114.441 49.3454 114.671 49.2165 116.38 49.2165C118.089 49.2165 118.319 49.3454 118.734 50.5365C119.113 51.6242 119.437 51.8565 120.572 51.8565C122.218 51.8565 122.27 52.2798 119.511 43.2765C117.752 37.5341 117.546 37.1073 116.474 36.9792C115.36 36.8468 115.267 37.0254 113.512 42.6992ZM127.6 44.3765V51.8565H128.905H130.209L130.335 47.3799L130.46 42.9038L132.799 47.3799C134.955 51.5067 135.238 51.8565 136.429 51.8565H137.72V44.3765V36.8965H136.415H135.11L134.985 41.6265L134.86 46.3565L132.45 41.6265C130.261 37.3303 129.928 36.8965 128.82 36.8965H127.6V44.3765ZM143.44 37.9965C143.44 38.9601 143.631 39.0965 144.98 39.0965H146.52V45.4765V51.8565H148.06H149.6V45.4765V39.0965H151.14C152.489 39.0965 152.68 38.9601 152.68 37.9965V36.8965H148.06H143.44V37.9965ZM159.503 40.7205C158.862 42.8523 157.856 46.1413 157.268 48.0294C156.681 49.9174 156.2 51.5507 156.2 51.6594C156.2 51.7676 156.866 51.8565 157.68 51.8565H159.16L160.404 47.0011C161.652 42.1263 162.002 41.7946 162.589 44.9265C162.834 46.2351 162.762 46.5765 162.24 46.5765C161.685 46.5765 161.068 47.7557 161.046 48.8588C161.043 49.0247 161.676 49.2227 162.453 49.2988C163.544 49.4053 163.923 49.6869 164.12 50.5365C164.325 51.4222 164.682 51.6625 165.956 51.7698L167.537 51.9036L165.253 44.5098C163.104 37.5539 162.902 37.1086 161.819 36.9805C160.728 36.8516 160.609 37.0443 159.503 40.7205ZM172.92 44.3765V51.8565H174.24H175.56V44.3765V36.8965H174.24H172.92V44.3765ZM73.7405 43.6558C73.5689 44.5705 73.3198 45.6019 73.187 45.9477C73.0149 46.3965 73.2842 46.5765 74.1277 46.5765C75.2321 46.5765 75.2893 46.4823 74.998 45.1465C74.3521 42.1866 74.0771 41.8606 73.7405 43.6558ZM115.792 44.054C115.128 46.6891 115.1 46.5765 116.415 46.5765C117.466 46.5765 117.527 46.4709 117.238 45.1465C116.567 42.074 116.335 41.898 115.792 44.054Z" fill="#686868"/>
</svg>
