<svg width="176" height="89" viewBox="0 0 176 89" fill="none" xmlns="http://www.w3.org/2000/svg">
<path fill-rule="evenodd" clip-rule="evenodd" d="M18.7 29.7716C17.758 30.374 15.5619 33.7919 11.029 41.7092C7.53588 47.8107 4.5958 53.3604 4.49592 54.0424C4.39604 54.7244 4.65696 56.0053 5.07628 56.8888C6.41652 59.7136 6.77732 59.7765 21.5802 59.7765C36.1046 59.7765 36.465 59.7184 38.0002 57.1189C39.4227 54.7112 39.0416 53.6874 32.4812 42.3063C29.0501 36.3531 25.821 30.9922 25.3053 30.3929C24.0139 28.8916 20.581 28.5686 18.7 29.7716ZM19.36 32.0565C18.1988 33.2177 18.2569 34.5078 19.5738 36.8112C20.4772 38.3916 20.5682 38.8475 20.1225 39.5612C19.8286 40.0315 19.4872 40.4165 19.3635 40.4165C19.2399 40.4165 18.6657 39.5255 18.088 38.4365C17.5102 37.3475 16.911 36.4565 16.7556 36.4565C16.5471 36.4565 10.8658 46.0054 9.36056 48.8865C9.26552 49.0678 10.8332 49.2156 12.844 49.2143L16.5 49.2126L20.57 42.1396C22.8083 38.2491 24.64 34.587 24.64 34.0013C24.64 32.5392 23.1541 31.1765 21.56 31.1765C20.8265 31.1765 19.8488 31.5677 19.36 32.0565ZM140.448 34.7845C139.214 36.0187 140.144 38.2165 141.9 38.2165C143.079 38.2165 143.88 37.4157 143.88 36.2365C143.88 35.0573 143.079 34.2565 141.9 34.2565C141.392 34.2565 140.738 34.4941 140.448 34.7845ZM51.2829 36.1265C49.6615 40.0425 44.44 53.4951 44.44 53.7569C44.44 53.9214 45.0846 54.0565 45.8726 54.0565C47.2182 54.0565 47.3607 53.9025 48.2143 51.5265L49.1229 48.9965L53.3223 48.8711L57.5212 48.7462L58.5143 51.4011C59.4678 53.9505 59.5685 54.0565 61.0408 54.0565C62.0928 54.0565 62.5042 53.884 62.3515 53.5065C62.2288 53.2042 60.5009 48.8478 58.5116 43.8265L54.8948 34.6965H53.3848C52.0964 34.6965 51.7884 34.906 51.2829 36.1265ZM87.56 44.3765V54.0565H88.88H90.2V49.4365C90.2 44.1372 90.7474 43.0565 93.4318 43.0565C95.9257 43.0565 96.36 43.9911 96.36 49.3613V54.0565H97.9H99.44L99.4374 49.7665C99.4347 44.7017 98.9652 42.7107 97.4358 41.2736C95.9468 39.8749 93.3865 39.8472 91.5433 41.2098L90.2 42.2029V38.4497V34.6965H88.88H87.56V44.3765ZM24.6316 39.1986C23.789 40.7065 23.0428 42.067 22.9724 42.2214C22.7792 42.6469 30.7762 56.396 31.5836 57.0265C32.626 57.8405 34.9523 57.6997 35.7918 56.7718C36.8342 55.6203 36.7167 53.3943 35.5568 52.3137C34.8401 51.6458 34.0006 51.4165 32.2727 51.4165C30.4278 51.4165 29.8575 51.2418 29.4954 50.5656C28.7993 49.2645 28.8688 49.2165 31.46 49.2165C32.791 49.2165 33.88 49.1351 33.88 49.0352C33.88 48.6023 26.7027 36.4565 26.4466 36.4565C26.2909 36.4565 25.4738 37.6903 24.6316 39.1986ZM78.76 38.4365C78.76 40.255 78.6702 40.4165 77.66 40.4165C76.78 40.4165 76.56 40.6365 76.56 41.5165C76.56 42.3965 76.78 42.6165 77.66 42.6165C78.7521 42.6165 78.76 42.6451 78.76 46.5906C78.76 51.5776 79.4125 53.3279 81.5333 54.0279C83.8486 54.7922 85.36 54.2598 85.36 52.6806C85.36 51.5322 85.2456 51.4284 84.2543 51.6774C82.2681 52.176 81.84 51.3004 81.84 46.7428V42.6165H83.6C85.184 42.6165 85.36 42.5065 85.36 41.5165C85.36 40.5265 85.184 40.4165 83.6 40.4165H81.84V38.4365C81.84 36.4671 81.8316 36.4565 80.3 36.4565C78.7684 36.4565 78.76 36.4671 78.76 38.4365ZM132 38.4365C132 40.255 131.91 40.4165 130.9 40.4165C130.02 40.4165 129.8 40.6365 129.8 41.5165C129.8 42.3965 130.02 42.6165 130.9 42.6165C131.99 42.6165 132 42.6504 132 46.511C132 48.6529 132.22 51.0346 132.488 51.8042C133.114 53.5998 135.105 54.6721 137.113 54.2954C138.413 54.0517 138.6 53.8493 138.6 52.6868C138.6 51.5573 138.468 51.3994 137.72 51.6365C137.236 51.7901 136.444 51.7901 135.96 51.6365C135.158 51.3818 135.08 50.9708 135.08 46.987V42.6165H136.84C138.424 42.6165 138.6 42.5065 138.6 41.5165C138.6 40.5265 138.424 40.4165 136.84 40.4165H135.08V38.4365C135.08 36.4671 135.072 36.4565 133.54 36.4565C132.008 36.4565 132 36.4671 132 38.4365ZM51.9781 42.0942C51.2204 44.0597 50.6 45.7735 50.6 45.9024C50.6 46.0309 51.887 46.1365 53.46 46.1365C55.033 46.1365 56.32 46.0758 56.32 46.0014C56.32 45.9271 55.6534 44.2137 54.8381 42.1932L53.3566 38.5201L51.9781 42.0942ZM105.338 40.8143C99.9416 43.2651 100.227 51.7236 105.777 53.8436C108.53 54.8947 110.602 54.438 112.728 52.3119C113.648 51.3923 114.4 50.4186 114.4 50.1484C114.4 49.2539 112.13 49.6376 110.8 50.7565C109.014 52.2591 107.19 52.1944 105.566 50.5704C103.203 48.2067 103.641 47.8965 109.34 47.8965H114.4V46.2984C114.4 45.4193 113.973 44.01 113.452 43.1665C112.497 41.6217 109.712 39.9959 108.02 39.9959C107.536 39.9959 106.329 40.3642 105.338 40.8143ZM122.329 40.4508C121.729 40.6994 120.887 41.22 120.459 41.608C119.737 42.2619 119.68 42.2443 119.68 41.3647C119.68 40.5745 119.423 40.4165 118.14 40.4165H116.6V47.2365V54.0565H118.14H119.68V49.5346C119.68 44.0778 120.159 43.0565 122.717 43.0565C125.43 43.0565 125.84 43.8846 125.84 49.3613V54.0565H127.38H128.92L128.917 49.7665C128.916 47.4072 128.718 44.769 128.478 43.904C127.677 41.018 124.825 39.4168 122.329 40.4508ZM149.872 40.4315C146.279 41.5077 144.229 46.1506 145.668 49.9579C146.874 53.1488 150.487 55.0294 153.612 54.093C155.294 53.5888 157.96 50.9946 157.96 49.8611C157.96 48.7435 155.676 49.0876 154.664 50.3574C153.356 51.9964 150.877 52.0136 149.258 50.394C146.578 47.7144 148.384 42.8805 152.065 42.8805C153.191 42.8805 153.908 43.1705 154.457 43.8485C155.157 44.7122 157.96 45.2935 157.96 44.5745C157.96 43.4767 156.29 41.535 154.741 40.8314C152.742 39.9242 151.82 39.8485 149.872 40.4315ZM62.9394 44.2665C62.9499 46.3842 63.1228 48.9684 63.3244 50.0098C64.0543 53.7859 67.1238 55.3756 70.3934 53.6715C71.8348 52.92 72.16 52.8707 72.16 53.4036C72.16 53.8563 72.6317 54.0565 73.7 54.0565H75.24V47.2365V40.4165H73.7H72.16V44.9384C72.16 50.4208 71.6866 51.4165 69.08 51.4165C66.4734 51.4165 66 50.4208 66 44.9384V40.4165H64.46H62.92L62.9394 44.2665ZM140.36 47.2365V54.0565H141.9H143.44V47.2365V40.4165H141.9H140.36V47.2365ZM158.79 41.1865C159.022 41.6102 160.019 43.0319 161.006 44.3462C161.993 45.66 162.8 46.9197 162.8 47.1446C162.8 47.3694 161.81 48.9147 160.6 50.5783C159.39 52.242 158.4 53.705 158.4 53.8299C158.4 53.9544 159.076 54.0565 159.903 54.0565C161.197 54.0565 161.629 53.7516 163.02 51.8565C163.908 50.6465 164.7 49.6565 164.78 49.6565C164.86 49.6565 165.652 50.6465 166.54 51.8565C167.931 53.7516 168.363 54.0565 169.657 54.0565C170.484 54.0565 171.154 53.9078 171.146 53.7265C171.139 53.5452 170.073 52.0114 168.778 50.3183L166.424 47.2396L168.36 44.5983C171.475 40.3492 171.457 40.4165 169.51 40.4165C168.151 40.4165 167.688 40.6475 167.085 41.6265C166.675 42.2922 165.972 43.3034 165.522 43.874L164.705 44.9116L163.055 42.664C161.623 40.714 161.204 40.4165 159.887 40.4165C158.574 40.4165 158.426 40.5204 158.79 41.1865ZM105.537 43.9317C104.814 44.655 104.346 45.447 104.497 45.6917C104.788 46.162 110.986 46.3235 111.437 45.8725C111.918 45.392 110.801 43.6017 109.711 43.1049C107.99 42.3208 106.94 42.5285 105.537 43.9317ZM20.13 47.0227L18.9204 49.2165H21.5877H24.255L23.0573 47.0165C22.3991 45.8065 21.743 44.8192 21.6 44.8227C21.457 44.8262 20.7957 45.8162 20.13 47.0227ZM7.68944 52.487C5.56732 54.6092 6.86708 57.5765 9.91804 57.5765C11.3124 57.5765 11.6204 57.3451 12.844 55.3765C13.856 53.7485 14.4804 53.1765 15.2456 53.1765C16.5378 53.1765 16.5334 53.3266 15.1743 55.6462L14.0681 57.5334L20.9163 57.665C24.6827 57.7371 28.0504 57.6953 28.4002 57.5712C28.8988 57.3953 28.677 56.7282 27.3768 54.4912L25.7176 51.6365L17.2484 51.5168L8.77888 51.3976L7.68944 52.487Z" fill="#686868"/>
</svg>
