<svg width="24" height="25" viewBox="0 0 24 25" fill="none" xmlns="http://www.w3.org/2000/svg">
<mask id="mask0_2004_1500" style="mask-type:luminance" maskUnits="userSpaceOnUse" x="0" y="1" width="12" height="15">
<path fill-rule="evenodd" clip-rule="evenodd" d="M0 3.22251C0 2.22638 0.848448 1.4165 1.89201 1.4165H6.62202V5.02852C6.62202 5.52799 7.04478 5.93152 7.56804 5.93152H11.3521V9.66482C9.6 11.0165 8.1 12.5165 7.815 15.8646H1.89201C0.848448 15.8646 0 15.0547 0 14.0586V3.22251ZM3.31454 8.13464V8.59976C3.31454 8.85698 3.09682 9.06482 2.82732 9.06482C2.55782 9.06482 2.34009 8.85698 2.34009 8.59976V7.90214C2.34009 7.517 2.66744 7.20452 3.07093 7.20452H8.43042C8.83392 7.20452 9.16128 7.517 9.16128 7.90214V8.59976C9.16128 8.85698 8.94354 9.06482 8.67402 9.06482C8.40456 9.06482 8.18682 8.85698 8.18682 8.59976V8.13464H6.2379V12.7855H6.96876C7.23822 12.7855 7.45596 12.9933 7.45596 13.2505C7.45596 13.5078 7.23822 13.7157 6.96876 13.7157H4.53262C4.26311 13.7157 4.04539 13.5078 4.04539 13.2505C4.04539 12.9933 4.26311 12.7855 4.53262 12.7855H5.26345V8.13464H3.31454Z" fill="white"/>
<path d="M11.3521 5.02852H7.56805V1.4165L11.3521 5.02852Z" fill="white"/>
</mask>
<g mask="url(#mask0_2004_1500)">
<path d="M24 0.816528H0V24.8165H24V0.816528Z" fill="url(#paint0_linear_2004_1500)"/>
</g>
<mask id="mask1_2004_1500" style="mask-type:luminance" maskUnits="userSpaceOnUse" x="8" y="9" width="17" height="16">
<path fill-rule="evenodd" clip-rule="evenodd" d="M16.4211 24.2492C20.6071 24.2492 24.0004 20.8559 24.0004 16.6699C24.0004 12.484 20.6071 9.09058 16.4211 9.09058C12.2352 9.09058 8.8418 12.484 8.8418 16.6699C8.8418 20.8559 12.2352 24.2492 16.4211 24.2492ZM20.006 16.8549C20.006 14.5666 18.9532 12.5243 17.3067 11.1848V11.1823C17.0454 10.9718 16.6598 11.0098 16.4492 11.2711C16.2387 11.5324 16.2767 11.9155 16.538 12.1286C17.913 13.2474 18.7883 14.9471 18.7883 16.8549C18.7883 18.7627 17.913 20.4624 16.538 21.5787C16.2767 21.7918 16.2361 22.1749 16.4492 22.4362C16.6623 22.6975 17.0454 22.7381 17.3067 22.525C18.9532 21.188 20.006 19.1433 20.006 16.8549ZM17.5705 16.8549C17.5705 15.3302 16.8678 13.9679 15.7719 13.0749V13.0723C15.5106 12.8618 15.1249 12.8998 14.9143 13.1611C14.7038 13.4224 14.7418 13.8055 15.0031 14.0186C15.8277 14.6909 16.3528 15.7107 16.3528 16.8549C16.3528 17.9991 15.8277 19.019 15.0031 19.6887C14.7418 19.9018 14.7013 20.2849 14.9143 20.5462C15.1275 20.8075 15.5106 20.8481 15.7719 20.635C16.8678 19.742 17.5705 18.3796 17.5705 16.8549ZM15.1351 16.8549C15.1351 16.0913 14.7825 15.4114 14.237 14.9649V14.9624C13.9757 14.7518 13.5901 14.7899 13.3795 15.0512C13.1689 15.3125 13.207 15.6956 13.4683 15.9086C13.7423 16.1344 13.9173 16.4744 13.9173 16.8549C13.9173 17.2355 13.7423 17.5754 13.4683 17.7987C13.207 18.0118 13.1664 18.3948 13.3795 18.6561C13.5926 18.9174 13.9757 18.9581 14.237 18.7449C14.7825 18.2984 15.1351 17.6186 15.1351 16.8549Z" fill="white"/>
</mask>
<g mask="url(#mask1_2004_1500)">
<g clip-path="url(#paint1_diamond_2004_1500_clip_path)" data-figma-skip-parse="true"><g transform="matrix(0.0003 0 0 0.0003 0.3 0.816528)"><rect x="0" y="0" width="81000" height="82000" fill="url(#paint1_diamond_2004_1500)" opacity="1" shape-rendering="crispEdges"/><rect x="0" y="0" width="81000" height="82000" transform="scale(1 -1)" fill="url(#paint1_diamond_2004_1500)" opacity="1" shape-rendering="crispEdges"/><rect x="0" y="0" width="81000" height="82000" transform="scale(-1 1)" fill="url(#paint1_diamond_2004_1500)" opacity="1" shape-rendering="crispEdges"/><rect x="0" y="0" width="81000" height="82000" transform="scale(-1)" fill="url(#paint1_diamond_2004_1500)" opacity="1" shape-rendering="crispEdges"/></g></g><path d="M24 0.816528H0V24.8165H24V0.816528Z" data-figma-gradient-fill="{&#34;type&#34;:&#34;GRADIENT_DIAMOND&#34;,&#34;stops&#34;:[{&#34;color&#34;:{&#34;r&#34;:0.094117648899555206,&#34;g&#34;:0.55294120311737061,&#34;b&#34;:0.77647060155868530,&#34;a&#34;:1.0},&#34;position&#34;:0.92307692766189575},{&#34;color&#34;:{&#34;r&#34;:0.074509806931018829,&#34;g&#34;:0.93725490570068359,&#34;b&#34;:0.58431375026702881,&#34;a&#34;:1.0},&#34;position&#34;:1.0}],&#34;stopsVar&#34;:[{&#34;color&#34;:{&#34;r&#34;:0.094117648899555206,&#34;g&#34;:0.55294120311737061,&#34;b&#34;:0.77647060155868530,&#34;a&#34;:1.0},&#34;position&#34;:0.92307692766189575},{&#34;color&#34;:{&#34;r&#34;:0.074509806931018829,&#34;g&#34;:0.93725490570068359,&#34;b&#34;:0.58431375026702881,&#34;a&#34;:1.0},&#34;position&#34;:1.0}],&#34;transform&#34;:{&#34;m00&#34;:0.60000002384185791,&#34;m01&#34;:0.0,&#34;m02&#34;:0.0,&#34;m10&#34;:0.0,&#34;m11&#34;:0.60000002384185791,&#34;m12&#34;:0.51652830839157104},&#34;opacity&#34;:1.0,&#34;blendMode&#34;:&#34;NORMAL&#34;,&#34;visible&#34;:true}"/>
</g>
<defs>
<clipPath id="paint1_diamond_2004_1500_clip_path"><path d="M24 0.816528H0V24.8165H24V0.816528Z"/></clipPath><linearGradient id="paint0_linear_2004_1500" x1="0" y1="0.816528" x2="0.6" y2="0.816528" gradientUnits="userSpaceOnUse">
<stop stop-color="#188DC6"/>
<stop offset="0.5" stop-color="#13EF95"/>
</linearGradient>
<linearGradient id="paint1_diamond_2004_1500" x1="0" y1="0" x2="500" y2="500" gradientUnits="userSpaceOnUse">
<stop offset="0.923077" stop-color="#188DC6"/>
<stop offset="1" stop-color="#13EF95"/>
</linearGradient>
</defs>
</svg>
