<svg width="25" height="25" viewBox="0 0 25 25" fill="none" xmlns="http://www.w3.org/2000/svg">
<g clip-path="url(#clip0_2034_107)">
<path fill-rule="evenodd" clip-rule="evenodd" d="M14.205 8.01648C13.6681 8.01696 13.1533 8.23046 12.7736 8.61011C12.394 8.98977 12.1805 9.50456 12.18 10.0415V22.1915C12.1805 22.7284 12.394 23.2432 12.7736 23.6228C13.1533 24.0025 13.6681 24.216 14.205 24.2165H22.305C22.8419 24.216 23.3567 24.0025 23.7364 23.6228C24.116 23.2432 24.3295 22.7284 24.33 22.1915V13.0787H20.28C20.147 13.0788 20.0153 13.0528 19.8924 13.002C19.7695 12.9512 19.6578 12.8766 19.5637 12.7826C19.4696 12.6886 19.395 12.5769 19.3441 12.4541C19.2933 12.3312 19.2671 12.1995 19.2672 12.0665V8.01648H14.205ZM20.28 12.0665H24.33L20.28 8.01648V12.0665ZM15.7278 16.2605V15.7391H17.8134V20.9537H17.031C16.8926 20.9537 16.7599 21.0086 16.6621 21.1065C16.5643 21.2043 16.5093 21.337 16.5093 21.4754C16.5093 21.6137 16.5643 21.7464 16.6621 21.8443C16.7599 21.9421 16.8926 21.9971 17.031 21.9971H19.6386C19.777 21.9971 19.9097 21.9421 20.0075 21.8443C20.1053 21.7464 20.1603 21.6137 20.1603 21.4754C20.1603 21.337 20.1053 21.2043 20.0075 21.1065C19.9097 21.0086 19.777 20.9537 19.6386 20.9537H18.8562V15.7397H20.9424V16.2605C20.9424 16.3988 20.9973 16.5314 21.0951 16.6292C21.1929 16.7269 21.3255 16.7819 21.4638 16.7819C21.6021 16.7819 21.7347 16.7269 21.8325 16.6292C21.9303 16.5314 21.9852 16.3988 21.9852 16.2605V15.4787C21.9852 15.0467 21.6348 14.6963 21.2028 14.6963H15.4668C15.0348 14.6963 14.6844 15.0467 14.6844 15.4781V16.2605C14.6844 16.3988 14.7394 16.5315 14.8372 16.6294C14.935 16.7272 15.0677 16.7822 15.2061 16.7822C15.3445 16.7822 15.4772 16.7272 15.575 16.6294C15.6728 16.5315 15.7278 16.3988 15.7278 16.2605Z" fill="#44ED7D"/>
<path fill-rule="evenodd" clip-rule="evenodd" d="M11.13 10.6685C11.13 8.9165 11.43 7.1165 13.83 7.1165C13.53 4.1165 10.8978 1.4165 7.23719 1.4165C3.42239 1.4165 0.329987 4.5059 0.329987 8.3165C0.329987 12.1271 3.42239 15.2165 7.23719 15.2165C8.52599 15.2165 9.92999 14.9165 11.13 14.0165V10.6685ZM5.75699 8.3165V5.8787C5.75699 5.0723 6.41699 4.4165 7.22999 4.4165C7.61917 4.41539 7.99288 4.56884 8.26897 4.84313C8.54506 5.11743 8.70096 5.49012 8.70239 5.8793H7.47599C7.41121 5.8793 7.34907 5.90491 7.3031 5.95054C7.25713 5.99618 7.23106 6.05813 7.23059 6.1229C7.23122 6.18773 7.25742 6.24969 7.30348 6.2953C7.34955 6.34092 7.41176 6.36651 7.47659 6.3665H8.70299V6.8543H7.47599C7.41121 6.8543 7.34907 6.87991 7.3031 6.92554C7.25713 6.97118 7.23106 7.03313 7.23059 7.0979C7.23122 7.16273 7.25742 7.22469 7.30348 7.2703C7.34955 7.31592 7.41176 7.34151 7.47659 7.3415H8.70299V7.8293H7.47599C7.41121 7.8293 7.34907 7.85491 7.3031 7.90054C7.25713 7.94618 7.23106 8.00813 7.23059 8.0729C7.23122 8.13773 7.25742 8.19969 7.30348 8.2453C7.34955 8.29092 7.41176 8.31651 7.47659 8.3165H8.70299C8.70156 8.70569 8.54566 9.07838 8.26957 9.35267C7.99348 9.62697 7.61977 9.78042 7.23059 9.7793C7.03778 9.78001 6.84672 9.74274 6.66832 9.66961C6.48992 9.59649 6.32767 9.48893 6.19083 9.3531C6.05399 9.21727 5.94525 9.05581 5.87081 8.87795C5.79637 8.70009 5.75769 8.50931 5.75699 8.3165ZM7.22999 10.2665C8.31479 10.2665 9.19379 9.3935 9.19379 8.3165V7.7069C9.19387 7.65874 9.20345 7.61106 9.22199 7.56661C9.24053 7.52216 9.26766 7.4818 9.30183 7.44785C9.336 7.41391 9.37654 7.38704 9.42111 7.36879C9.46568 7.35054 9.51342 7.34127 9.56159 7.3415C9.60985 7.34119 9.6577 7.35042 9.70239 7.36867C9.74707 7.38692 9.7877 7.41383 9.82194 7.44785C9.85618 7.48187 9.88336 7.52232 9.9019 7.56689C9.92044 7.61145 9.92999 7.65924 9.92999 7.7075V8.3165C9.92999 9.6737 8.91419 10.7951 7.59839 10.9733V11.4851H8.33459C8.38386 11.4831 8.43302 11.4911 8.47913 11.5086C8.52524 11.526 8.56734 11.5527 8.60291 11.5868C8.63848 11.621 8.66678 11.662 8.68611 11.7073C8.70544 11.7527 8.7154 11.8015 8.7154 11.8508C8.7154 11.9001 8.70544 11.9489 8.68611 11.9943C8.66678 12.0396 8.63848 12.0806 8.60291 12.1148C8.56734 12.1489 8.52524 12.1756 8.47913 12.193C8.43302 12.2105 8.38386 12.2185 8.33459 12.2165H6.12539C6.07612 12.2185 6.02695 12.2105 5.98084 12.193C5.93473 12.1756 5.89263 12.1489 5.85706 12.1148C5.8215 12.0806 5.7932 12.0396 5.77387 11.9943C5.75454 11.9489 5.74457 11.9001 5.74457 11.8508C5.74457 11.8015 5.75454 11.7527 5.77387 11.7073C5.7932 11.662 5.8215 11.621 5.85706 11.5868C5.89263 11.5527 5.93473 11.526 5.98084 11.5086C6.02695 11.4911 6.07612 11.4831 6.12539 11.4851H6.86159V10.9733C5.54579 10.7951 4.52999 9.6737 4.52999 8.3165V7.7069C4.53006 7.65869 4.53967 7.61096 4.55825 7.56647C4.57683 7.52198 4.60401 7.48159 4.63825 7.44764C4.67248 7.41369 4.71308 7.38683 4.75773 7.36862C4.80237 7.3504 4.85017 7.34119 4.89839 7.3415C4.9466 7.34127 4.99439 7.35056 5.039 7.36885C5.08361 7.38713 5.12417 7.41405 5.15835 7.44806C5.19253 7.48207 5.21965 7.5225 5.23816 7.56702C5.25666 7.61155 5.26619 7.65929 5.26619 7.7075V8.3165C5.26619 9.3935 6.14519 10.2665 7.22999 10.2665Z" fill="#44ED7D"/>
</g>
<defs>
<clipPath id="clip0_2034_107">
<rect width="24" height="24" fill="white" transform="translate(0.329987 0.816528)"/>
</clipPath>
</defs>
</svg>
