<svg width="25" height="25" viewBox="0 0 25 25" fill="none" xmlns="http://www.w3.org/2000/svg">
<g clip-path="url(#clip0_2004_1531)">
<path d="M11.9478 3.9101C11.9461 3.27316 11.7009 2.661 11.2623 2.19907C10.8238 1.73715 10.2252 1.46045 9.58917 1.4257C8.95317 1.39095 8.32797 1.60077 7.8417 2.01215C7.35544 2.42354 7.04493 3.00534 6.97383 3.6383C6.60482 3.73252 6.25836 3.89957 5.95483 4.12962C5.65131 4.35967 5.39683 4.64808 5.20638 4.97789C5.01592 5.30771 4.89333 5.67227 4.8458 6.05015C4.79828 6.42803 4.82678 6.8116 4.92963 7.1783C4.29375 7.31766 3.72456 7.67007 3.31635 8.17714C2.90813 8.68422 2.6854 9.31553 2.68503 9.9665C2.68301 10.6086 2.89971 11.2322 3.29943 11.7347C2.68926 12.0228 2.17357 12.4785 1.81249 13.0485C1.45141 13.6186 1.25981 14.2795 1.26003 14.9543C1.25931 15.6772 1.47883 16.3832 1.88936 16.9782C2.2999 17.5732 2.88196 18.029 3.55803 18.2849C3.38736 18.7733 3.35274 19.2989 3.45787 19.8055C3.56301 20.3121 3.80394 20.7805 4.15487 21.1607C4.5058 21.5408 4.95352 21.8184 5.45009 21.9636C5.94665 22.1088 6.47337 22.1163 6.97383 21.9851C7.03833 22.5976 7.32735 23.1646 7.78515 23.5766C8.24296 23.9887 8.83711 24.2166 9.45303 24.2165C10.1142 24.216 10.7482 23.9532 11.2157 23.4856C11.6833 23.0181 11.9462 22.3841 11.9466 21.7229V13.5287H9.81003C9.41823 13.5287 9.09723 13.8497 9.09723 14.2415V15.7865C9.57271 15.9546 9.97345 16.2853 10.2286 16.7203C10.4838 17.1553 10.577 17.6665 10.4918 18.1635C10.4065 18.6606 10.1482 19.1115 9.76268 19.4365C9.37711 19.7616 8.88904 19.9399 8.38473 19.9399C7.88043 19.9399 7.39236 19.7616 7.00679 19.4365C6.62122 19.1115 6.36298 18.6606 6.27771 18.1635C6.19245 17.6665 6.28564 17.1553 6.54083 16.7203C6.79601 16.2853 7.19676 15.9546 7.67223 15.7865V14.2415C7.67223 13.6745 7.89747 13.1308 8.29838 12.7299C8.6993 12.3289 9.24305 12.1037 9.81003 12.1037H11.9478V8.5415H10.4022C10.2342 9.01698 9.9034 9.41772 9.46842 9.67291C9.03344 9.9281 8.52225 10.0213 8.02521 9.93603C7.52816 9.85076 7.07726 9.59252 6.7522 9.20695C6.42715 8.82138 6.24886 8.33331 6.24886 7.829C6.24886 7.3247 6.42715 6.83663 6.7522 6.45106C7.07726 6.06549 7.52816 5.80725 8.02521 5.72198C8.52225 5.63672 9.03344 5.72991 9.46842 5.9851C9.9034 6.24028 10.2342 6.64103 10.4022 7.1165H11.9472L11.9478 3.9101ZM13.3728 8.5415V17.0915H14.9178C15.0859 16.616 15.4167 16.2153 15.8517 15.9601C16.2866 15.7049 16.7978 15.6117 17.2949 15.697C17.7919 15.7822 18.2428 16.0405 18.5679 16.4261C18.8929 16.8116 19.0712 17.2997 19.0712 17.804C19.0712 18.3083 18.8929 18.7964 18.5679 19.182C18.2428 19.5675 17.7919 19.8258 17.2949 19.911C16.7978 19.9963 16.2866 19.9031 15.8517 19.6479C15.4167 19.3927 15.0859 18.992 14.9178 18.5165H13.3728V21.7229C13.3733 22.384 13.6361 23.0179 14.1035 23.4854C14.5709 23.9529 15.2047 24.2159 15.8658 24.2165C16.4816 24.2161 17.0756 23.9881 17.5335 23.5763C17.9913 23.1646 18.2808 22.598 18.3462 21.9857C18.8467 22.1169 19.3734 22.1094 19.87 21.9642C20.3665 21.819 20.8143 21.5414 21.1652 21.1613C21.5161 20.7811 21.7571 20.3127 21.8622 19.8061C21.9673 19.2995 21.9327 18.7739 21.762 18.2855C22.4383 18.0294 23.0206 17.5733 23.4311 16.9779C23.8417 16.3826 24.061 15.6763 24.06 14.9531C24.0602 14.2783 23.8685 13.6173 23.5073 13.0472C23.1461 12.4772 22.6303 12.0216 22.02 11.7335C22.4202 11.2315 22.6372 10.6079 22.635 9.9659C22.6346 9.31512 22.4119 8.68401 22.0038 8.17707C21.5957 7.67013 21.0267 7.31776 20.391 7.1783C20.4939 6.8116 20.5224 6.42803 20.4749 6.05015C20.4273 5.67227 20.3047 5.30771 20.1143 4.97789C19.9238 4.64808 19.6694 4.35967 19.3658 4.12962C19.0623 3.89957 18.7159 3.73252 18.3468 3.6383C18.2788 3.02781 17.9883 2.46377 17.5308 2.05392C17.0732 1.64408 16.4807 1.41715 15.8664 1.4165C15.2051 1.41682 14.571 1.67962 14.1033 2.14718C13.6357 2.61473 13.3727 3.2488 13.3722 3.9101V7.1165H15.51C16.077 7.1165 16.6208 7.34174 17.0217 7.74265C17.4226 8.14357 17.6478 8.68732 17.6478 9.2543V9.3743C18.1233 9.54238 18.5241 9.87314 18.7792 10.3081C19.0344 10.7431 19.1276 11.2543 19.0424 11.7513C18.9571 12.2484 18.6989 12.6993 18.3133 13.0243C17.9277 13.3494 17.4396 13.5277 16.9353 13.5277C16.431 13.5277 15.943 13.3494 15.5574 13.0243C15.1718 12.6993 14.9136 12.2484 14.8283 11.7513C14.743 11.2543 14.8362 10.7431 15.0914 10.3081C15.3466 9.87314 15.7474 9.54238 16.2228 9.3743V9.2543C16.2228 8.8619 15.9018 8.5415 15.51 8.5415H13.3728ZM7.67283 7.8287C7.67007 7.92401 7.68645 8.0189 7.72101 8.10777C7.75558 8.19663 7.80762 8.27765 7.87405 8.34604C7.94049 8.41443 8.01997 8.4688 8.10779 8.50593C8.19561 8.54305 8.28999 8.56218 8.38533 8.56218C8.48068 8.56218 8.57506 8.54305 8.66288 8.50593C8.7507 8.4688 8.83018 8.41443 8.89662 8.34604C8.96305 8.27765 9.01509 8.19663 9.04966 8.10777C9.08422 8.0189 9.1006 7.92401 9.09783 7.8287C9.09783 7.63966 9.02274 7.45835 8.88906 7.32468C8.75538 7.191 8.57408 7.1159 8.38503 7.1159C8.19599 7.1159 8.01468 7.191 7.88101 7.32468C7.74733 7.45835 7.67283 7.63966 7.67283 7.8287ZM16.935 10.6787C16.746 10.6787 16.5647 10.7538 16.431 10.8875C16.2973 11.0212 16.2222 11.2025 16.2222 11.3915C16.2222 11.5806 16.2973 11.7619 16.431 11.8955C16.5647 12.0292 16.746 12.1043 16.935 12.1043C17.1204 12.0989 17.2964 12.0215 17.4256 11.8885C17.5549 11.7554 17.6272 11.5773 17.6272 11.3918C17.6272 11.2063 17.5549 11.0282 17.4256 10.8951C17.2964 10.7621 17.1204 10.6841 16.935 10.6787ZM7.67223 17.8043C7.67223 17.8979 7.69067 17.9906 7.72649 18.0771C7.76232 18.1636 7.81482 18.2421 7.88101 18.3083C7.9472 18.3745 8.02578 18.427 8.11226 18.4628C8.19874 18.4987 8.29143 18.5171 8.38503 18.5171C8.47864 18.5171 8.57133 18.4987 8.65781 18.4628C8.74429 18.427 8.82287 18.3745 8.88906 18.3083C8.95525 18.2421 9.00775 18.1636 9.04358 18.0771C9.0794 17.9906 9.09783 17.8979 9.09783 17.8043C9.09783 17.6153 9.02274 17.434 8.88906 17.3003C8.75538 17.1666 8.57408 17.0915 8.38503 17.0915C8.19599 17.0915 8.01468 17.1666 7.88101 17.3003C7.74733 17.434 7.67223 17.6153 7.67223 17.8043ZM16.2222 17.8043C16.2222 17.9934 16.2973 18.1747 16.431 18.3083C16.5647 18.442 16.746 18.5171 16.935 18.5171C17.1241 18.5171 17.3054 18.442 17.4391 18.3083C17.5727 18.1747 17.6478 17.9934 17.6478 17.8043C17.6425 17.6189 17.565 17.4429 17.432 17.3137C17.299 17.1845 17.1208 17.1122 16.9353 17.1122C16.7499 17.1122 16.5717 17.1845 16.4387 17.3137C16.3056 17.4429 16.2276 17.6189 16.2222 17.8043Z" fill="#64FF69"/>
</g>
<defs>
<clipPath id="clip0_2004_1531">
<rect width="24" height="24" fill="white" transform="translate(0.660034 0.816528)"/>
</clipPath>
</defs>
</svg>
