<svg width="130" height="31" viewBox="0 0 130 31" fill="none" xmlns="http://www.w3.org/2000/svg">
<path fill-rule="evenodd" clip-rule="evenodd" d="M14.8062 6.23616C16.64 8.09747 17.6262 10.5577 17.5875 13.163V13.1598C17.507 18.4056 13.0948 22.6724 7.75438 22.6724H0.251389C0.10958 22.6724 0.0386752 22.5018 0.138586 22.3987L3.79017 18.7308C3.8514 18.6696 3.93198 18.6342 4.019 18.6342H7.82528C10.8871 18.6342 13.4525 16.1868 13.5428 13.1823C13.5879 11.6495 13.0239 10.2003 11.9539 9.09898C10.8838 7.99765 9.44964 7.39223 7.91875 7.39223H4.04478V13.646C4.04478 13.7008 4.00288 13.7426 3.94809 13.7426H0.096688C0.0418981 13.7426 0 13.7008 0 13.646V3.4474C0 3.39266 0.0418981 3.3508 0.096688 3.3508H7.91875C10.5261 3.3508 12.9723 4.37484 14.8062 6.23616ZM25.8028 8.53259C21.0844 8.53259 18.9315 12.1458 18.9315 15.6752L18.9283 15.6784C18.9283 19.182 21.3584 22.8757 26.0768 22.8757C29.4544 22.8757 32.0779 20.9951 32.6773 18.0582C32.6902 17.997 32.6419 17.939 32.5806 17.939H29.0193C28.9774 17.939 28.9419 17.968 28.9291 18.0099C28.6035 19.1498 27.5915 19.7327 26.0768 19.7327C24.1462 19.7327 22.9054 18.5187 22.6282 16.5607H32.5291C32.5806 16.5607 32.6225 16.5253 32.6258 16.4738C32.6515 16.1775 32.6741 15.7943 32.6741 15.3177C32.6741 12.1458 30.5212 8.53259 25.8028 8.53259ZM25.8028 11.3439C27.6528 11.3439 28.7292 12.5837 28.8388 14.1295H22.683C23.015 12.1973 24.0657 11.3439 25.8028 11.3439ZM34.3562 15.6752C34.3562 12.1458 36.5091 8.53259 41.2275 8.53259C45.9459 8.53259 48.0988 12.1458 48.0988 15.3177C48.0988 15.7943 48.0762 16.1775 48.0505 16.4738C48.0472 16.5253 48.0053 16.5607 47.9538 16.5607H38.0529C38.3301 18.5187 39.5709 19.7327 41.5015 19.7327C43.0162 19.7327 44.0282 19.1498 44.3538 18.0099C44.3666 17.968 44.4021 17.939 44.444 17.939H48.0053C48.0666 17.939 48.1149 17.997 48.102 18.0582C47.5026 20.9951 44.8791 22.8757 41.5015 22.8757C36.7831 22.8757 34.353 19.182 34.353 15.6784L34.3562 15.6752ZM44.2635 14.1295C44.1539 12.5837 43.0775 11.3439 41.2275 11.3439C39.4903 11.3439 38.4397 12.1973 38.1077 14.1295H44.2635ZM53.9748 8.75479H50.3328V8.74834C50.2781 8.74834 50.2362 8.79021 50.2362 8.84496V28.1762C50.2362 28.231 50.2781 28.2729 50.3328 28.2729H53.9748C54.0295 28.2729 54.0714 28.231 54.0714 28.1762V21.4073C54.8159 22.3444 56.1696 22.8692 57.7424 22.8692C61.7453 22.8692 64.4493 20.029 64.4493 15.7009C64.4493 11.3729 61.9644 8.53259 58.0453 8.53259C56.2502 8.53259 54.8997 9.19596 54.0714 10.2715V8.85139C54.0714 8.79665 54.0295 8.75479 53.9748 8.75479ZM60.6398 15.7042C60.6398 18.0195 59.2894 19.5653 57.246 19.5653C55.2059 19.5653 53.8523 18.0453 53.8523 15.7042C53.8523 13.363 55.2059 11.8173 57.246 11.8173C59.2862 11.8173 60.6398 13.3888 60.6398 15.7042ZM70.0568 25.3648C70.118 25.3036 70.1986 25.2714 70.2856 25.2714H74.1983C75.3843 25.2714 76.2126 24.3343 76.2126 23.0655V21.2461C75.4939 22.2669 74.0307 22.8723 72.4031 22.8723C68.2906 22.8723 65.8348 20.032 65.8348 15.704C65.8348 11.376 68.2906 8.53565 72.3483 8.53565C74.0597 8.53565 75.4101 9.17004 76.2126 10.1361V8.85445C76.2126 8.79971 76.2545 8.75784 76.3093 8.75784H79.9512C80.006 8.75784 80.0479 8.79971 80.0479 8.85445V23.4842C80.0479 26.3534 77.9788 28.2823 74.8332 28.2823H67.5397C67.3947 28.2823 67.3238 28.1085 67.4269 28.0086L70.0568 25.3712V25.3648ZM73.0122 19.5619C75.1104 19.5619 76.435 18.0451 76.435 15.7008C76.435 13.3564 75.1104 11.8139 73.0122 11.8139C70.9141 11.8139 69.6185 13.3596 69.6185 15.7008C69.6185 18.0419 70.9721 19.5619 73.0122 19.5619ZM86.71 22.5531V15.8936H86.7132C86.7132 13.5203 87.5673 11.9488 89.4721 11.9488H91.6669C91.7217 11.9488 91.7636 11.9069 91.7636 11.8522V8.84764C91.7636 8.79289 91.7217 8.75102 91.6669 8.75102H90.2166C88.5052 8.75102 87.4545 9.32745 86.71 11.0664V8.84764C86.71 8.79289 86.6681 8.75102 86.6133 8.75102H82.9714C82.9166 8.75102 82.8747 8.79289 82.8747 8.84764V22.5531C82.8747 22.6079 82.9166 22.6497 82.9714 22.6497H86.6133C86.6681 22.6497 86.71 22.6079 86.71 22.5531ZM92.9914 18.7083C92.9914 15.9775 95.0347 14.3223 98.0965 14.3223H100.414C101.104 14.3223 101.461 13.8812 101.461 13.3015C101.461 12.1422 100.578 11.3436 99.0054 11.3436C97.4326 11.3436 96.4851 12.3386 96.4141 13.4593C96.4141 13.5108 96.3722 13.5495 96.3207 13.5495H93.0945C93.0365 13.5495 92.9914 13.5012 92.9946 13.4432C93.1848 10.7059 95.4376 8.52903 99.1988 8.52903C102.731 8.52903 105.297 10.5707 105.297 13.7137V22.5501C105.297 22.6049 105.255 22.6467 105.2 22.6467H101.558C101.503 22.6467 101.461 22.6049 101.461 22.5501V20.7178C100.991 22.0123 99.4469 22.8689 97.5422 22.8689C94.8639 22.8689 92.9882 21.0752 92.9882 18.7051L92.9914 18.7083ZM98.5381 20.0866C100.388 20.0866 101.464 18.7083 101.464 16.9436V16.7504H98.6767C97.4906 16.7504 96.6881 17.4685 96.6881 18.5441C96.6881 19.4554 97.4616 20.0898 98.5381 20.0898V20.0866ZM111.375 8.75479H107.733L107.739 8.75157C107.685 8.75157 107.643 8.79344 107.643 8.84818V22.5537C107.643 22.6084 107.685 22.6503 107.739 22.6503H111.381C111.436 22.6503 111.478 22.6084 111.478 22.5537V14.7638C111.478 12.9702 112.496 11.7851 114.098 11.7851C115.587 11.7851 116.554 12.9702 116.554 14.7638V22.5537C116.554 22.6084 116.596 22.6503 116.651 22.6503H120.293C120.347 22.6503 120.389 22.6084 120.389 22.5537V14.7638C120.389 12.9702 121.408 11.7851 123.01 11.7851C124.499 11.7851 125.465 12.9702 125.465 14.7638V22.5537C125.465 22.6084 125.507 22.6503 125.562 22.6503H129.204C129.259 22.6503 129.301 22.6084 129.301 22.5537V13.5498C129.301 10.7674 127.341 8.53259 124.334 8.53259C122.101 8.53259 120.36 9.71765 119.671 11.0702C119.007 9.41494 117.598 8.53259 115.42 8.53259C113.541 8.53259 112.216 9.44392 111.472 10.7127V8.85139C111.472 8.79665 111.43 8.75479 111.375 8.75479Z" fill="white"/>
</svg>
